<?xml version="1.0" encoding="UTF-8"?>
<svg xmlns="http://www.w3.org/2000/svg" xmlns:xlink="http://www.w3.org/1999/xlink" viewBox="0 0 1000 1000">
  <defs>
    <style>
      .cls-1 {
        fill: #7dac44;
      }

      .cls-1, .cls-2, .cls-3, .cls-4, .cls-5, .cls-6, .cls-7, .cls-8, .cls-9, .cls-10, .cls-11, .cls-12, .cls-13, .cls-14 {
        stroke-width: 0px;
      }

      .cls-2 {
        mix-blend-mode: multiply;
        opacity: .5;
      }

      .cls-2, .cls-10 {
        fill: #ff9166;
      }

      .cls-3, .cls-15 {
        opacity: .6;
      }

      .cls-3, .cls-13 {
        fill: #f4a269;
      }

      .cls-4 {
        fill: #ffd09a;
      }

      .cls-5 {
        fill: #5b9635;
      }

      .cls-6 {
        fill: #5d5d5d;
        opacity: .1;
      }

      .cls-16 {
        isolation: isolate;
      }

      .cls-7 {
        fill: #112035;
      }

      .cls-8 {
        fill: none;
      }

      .cls-9 {
        fill: #fff;
      }

      .cls-17 {
        clip-path: url(#clippath);
      }

      .cls-11 {
        fill: #43872d;
      }

      .cls-12 {
        fill: #e29969;
      }

      .cls-13 {
        opacity: .4;
      }

      .cls-14 {
        fill: #757575;
      }
    </style>
    <clipPath id="clippath">
      <path class="cls-8" d="m877.63,499.78c-10.52-20.13-106.46-181.2-106.46-181.2H224.64s-91.75,161.06-102.27,181.2c49.64,2.72,705.62,2.72,755.26,0Z"/>
    </clipPath>
  </defs>
  <g class="cls-16">
    <g id="Livello_1" data-name="Livello 1">
      <g id="GRASS">
        <g>
          <path class="cls-1" d="m841.4,545.77c-67.88,3.02-86.86,157.11-86.86,157.11l37.08,14.85s117.66-174.97,49.78-171.96Z"/>
          <path class="cls-11" d="m772.88,703.71s47.04-127.11,58.52-123.62c7.56,2.3-13.15,20.38-51.95,123.62h-6.58Z"/>
          <path class="cls-5" d="m843.27,712.67c38.53-37.53,78.82-92.86,58.71-106.27-33.34-22.22-80.69,60.18-105.9,99.07.02,0,.04,0,.06,0,16.58,2.22,32.32,4.62,47.13,7.19Z"/>
          <path class="cls-11" d="m789.45,740.5s75.55-112.53,85.89-106.44c6.81,4.01-17.57,16.73-79.49,107.98l-6.39-1.54Z"/>
        </g>
        <g>
          <path class="cls-1" d="m160.3,545.77c67.88,3.02,86.86,157.11,86.86,157.11l-37.08,14.85s-117.66-174.97-49.78-171.96Z"/>
          <path class="cls-11" d="m228.83,703.71s-47.04-127.11-58.52-123.62c-7.56,2.3,13.15,20.38,51.95,123.62h6.58Z"/>
          <path class="cls-5" d="m158.44,712.67c-38.53-37.53-78.82-92.86-58.71-106.27,33.34-22.22,80.69,60.18,105.9,99.07-.02,0-.04,0-.06,0-16.58,2.22-32.32,4.62-47.13,7.19Z"/>
          <path class="cls-11" d="m212.26,740.5s-75.55-112.53-85.89-106.44c-6.81,4.01,17.57,16.73,79.49,107.98l6.39-1.54Z"/>
        </g>
        <ellipse class="cls-1" cx="500" cy="773.41" rx="487.89" ry="85.48"/>
        <path class="cls-5" d="m272.03,754.75s-91.16-110.65-42.35-127.8l2.22,6.87,40.13,120.93Z"/>
        <path class="cls-5" d="m729.67,754.75s91.16-110.65,42.35-127.8l-2.22,6.87-40.13,120.93Z"/>
        <path class="cls-5" d="m190.51,707.32c-27.27,28.15-61.92,64.04-68.14,71.02,49.64,1.59,705.62,1.59,755.26,0-6.26-7.02-42.72-43.25-71.25-71.46-83.75-11.86-190.32-18.96-306.38-18.96s-225.28,7.28-309.49,19.4Z"/>
      </g>
      <polygon class="cls-12" points="224.64 318.58 169.96 526.61 230.02 514.32 224.64 318.58"/>
      <polygon class="cls-12" points="772.62 318.58 827.31 526.61 767.24 514.32 772.62 318.58"/>
      <path class="cls-4" d="m509.08,397.93l-290.27,91.62,36.07,231.92s112.91,12.68,246.31,12.68,246.31-12.68,246.31-12.68l36.07-231.92-274.49-91.62Z"/>
      <g class="cls-15">
        <g>
          <path class="cls-10" d="m500,607.44c-27,0-48.88,25.79-48.88,50.91,0,39.14,20.24,42.77,48.88,36.88,28.63,4.07,48.88,8.6,48.88-36.88,0-25.12-21.88-50.91-48.88-50.91Z"/>
          <path class="cls-10" d="m574.75,592.98c-7.75-4.57-19.28.61-25.76,11.6-6.48,10.98-5.45,23.58,2.3,28.16,7.75,4.57,19.28-.61,25.76-11.6,6.48-10.98,5.45-23.59-2.3-28.16Z"/>
          <path class="cls-10" d="m519.65,598.36c10.08,3.5,22.27-5.23,27.23-19.52,4.95-14.28.8-28.7-9.28-32.19-10.08-3.49-22.26,5.24-27.22,19.53-4.96,14.28-.81,28.7,9.27,32.19Z"/>
          <path class="cls-10" d="m451,604.58c-6.48-10.98-18.01-16.17-25.76-11.6-7.75,4.57-8.78,17.18-2.3,28.16,6.48,10.98,18.01,16.17,25.76,11.6,7.75-4.57,8.78-17.18,2.3-28.16Z"/>
          <path class="cls-10" d="m480.35,598.36c10.08-3.49,14.23-17.91,9.27-32.19-4.96-14.29-17.14-23.02-27.22-19.53-10.08,3.5-14.23,17.91-9.28,32.19,4.96,14.29,17.15,23.02,27.23,19.52Z"/>
        </g>
      </g>
      <path class="cls-3" d="m779.72,514.26l3.84-24.72-274.49-91.62-290.27,91.62,3.85,24.74c146.28.92,412.1.91,557.06-.02Z"/>
      <path class="cls-4" d="m877.63,499.78c-10.52-20.13-106.46-181.2-106.46-181.2H224.64s-91.75,161.06-102.27,181.2c49.64,2.72,705.62,2.72,755.26,0Z"/>
      <g>
        <path class="cls-9" d="m501.19,318.58s4.72-88.11-9.48-120.99c-14.19-32.88-22.47-35.51-40.69,18.41-16.9-7.89-77.4,2.63-77.4,2.63,0,0-14.47-48.54-36.82-44.65-22.36,3.89-38.85,130.13-37.18,144.6h201.56Z"/>
        <path class="cls-10" d="m491.71,197.59c-14.19-32.88-22.47-35.51-40.69,18.41-3.57-1.67-9.1-2.51-15.58-2.8,0,0-7.7,63.33,66.41,61.69-.42-27.08-2.64-59.91-10.15-77.3Z"/>
        <path class="cls-2" d="m462.99,216.88s1.82-31.49,12.34-31.56c10.52-.07,17.87,39.96,16.38,44.53-9.37-5.07-28.72-12.96-28.72-12.96Z"/>
        <path class="cls-6" d="m363.54,219.29s-7.64-32.32-22.13-33.97c-14.49-1.65-15.12,44.53-15.12,44.53,0,0,11.39-10.55,37.25-10.55Z"/>
        <g>
          <path class="cls-7" d="m349.03,258.93c-1.8.27-1.03,2.99.75,2.73,11.4-1.7,27.02-.35,32.32,11.6.74,1.66,3.17.22,2.44-1.43-5.86-13.18-22.96-14.77-35.51-12.9Z"/>
          <path class="cls-7" d="m466.23,259.82c1.82.11,1.81-2.71,0-2.83-10.54-.65-21.72,5.19-27.6,13.89-1.02,1.52,1.43,2.93,2.44,1.43,5.34-7.9,15.64-13.08,25.16-12.49Z"/>
          <path class="cls-7" d="m414.31,286.34c5.42-.17,9.66-4.57,10.77-9.65.06-.29.02-.55-.06-.78-.14-.55-.57-1.01-1.3-1.01h-18.72c-.99,0-1.52.9-1.36,1.79.95,5.57,4.76,9.84,10.68,9.65Z"/>
          <path class="cls-7" d="m426.9,296.68c-.76,8.22-10.05,4.97-12.06-.38-.43-1.15-1.88-1.42-2.58-.34-3.62,5.53-16.15,8.92-19.09.69-.61-1.7-3.34-.97-2.72.75,3.45,9.68,16.7,8.11,22.78,1.78,4.45,6.8,15.56,7.59,16.5-2.51.17-1.81-2.66-1.8-2.83,0Z"/>
          <path class="cls-7" d="m371.45,285.31c-7.19-1.16-14.45-1.82-21.67-2.83-1.78-.25-2.55,2.47-.75,2.73,7.21,1.01,14.48,1.67,21.67,2.83,1.78.29,2.55-2.44.75-2.73Z"/>
          <path class="cls-7" d="m374.85,290.91c-7.58,1.02-15.03,2.75-22.61,3.77-1.78.24-1.8,3.07,0,2.83,7.58-1.02,15.03-2.75,22.61-3.77,1.78-.24,1.8-3.07,0-2.83Z"/>
          <path class="cls-7" d="m465.86,282.48c-7.97,1.13-15.78,2.57-23.55,4.71-1.76.48-1.01,3.21.75,2.72,7.77-2.14,15.58-3.58,23.55-4.71,1.8-.25,1.03-2.98-.75-2.73Z"/>
          <path class="cls-7" d="m464.35,293.39c-7.27-.43-14.42-.46-21.67-1.29-1.81-.21-1.79,2.62,0,2.83,7.25.84,14.4.87,21.67,1.29,1.82.11,1.81-2.72,0-2.83Z"/>
        </g>
        <path class="cls-7" d="m304.98,266.14s37.09,2.47,31.83,52.44h-36.82s-.39-22.96,4.99-52.44Z"/>
        <path class="cls-7" d="m513.42,322.09c.07-19.27-44.14-26.45-49.92,0-2.47,11.31,4.12,25.88,16.23,9.36.83,10.18,16.52,11.56,19.27.55.83,9.91,14.34,9.98,14.41-9.91Z"/>
        <path class="cls-10" d="m409.9,322.09c.07-19.27-44.14-26.45-49.92,0-2.47,11.31,4.12,25.88,16.23,9.36.83,10.18,16.52,11.56,19.27.55.83,9.91,14.34,9.98,14.41-9.91Z"/>
        <path class="cls-9" d="m263.16,296.21c0,11.62,3.2,18.21,6.32,21.62h20.74c-2.86-4.81-6.02-14.78-6.02-35.36,0-37.53-36.82-43.02-58.74-26.69-21.92,16.33-4.38,36.16,15.78,26.69,20.16-9.48,21.92.14,21.92,13.75Z"/>
      </g>
      <path class="cls-14" d="m740.73,247.29c-5.88,10.02-11.98,14.09-16.39,15.45l-17.89-10.49c4.9-2.71,12.67-9.7,23.09-27.46,18.99-32.37,53.53-18.48,64.17,6.7,10.64,25.18-14.51,33.41-27.12,15.03-12.6-18.38-18.98-10.96-25.86.77Z"/>
      <path class="cls-9" d="m540.11,318.58s-4.28-104.33,10.23-153.26c10.18-34.33,22.47-35.51,40.69,18.41,40.98-9.75,77.39,2.63,77.39,2.63,0,0,14.47-48.54,36.82-44.65,22.36,3.89,27.28,162.41,25.61,176.87h-190.75Z"/>
      <g>
        <path class="cls-7" d="m693.02,226.66c1.8.27,1.03,2.99-.75,2.73-11.4-1.7-27.02-.35-32.32,11.6-.74,1.66-3.17.22-2.44-1.43,5.86-13.18,22.96-14.77,35.51-12.9Z"/>
        <path class="cls-7" d="m575.82,227.55c-1.82.11-1.81-2.71,0-2.83,10.54-.65,21.72,5.19,27.6,13.89,1.02,1.52-1.43,2.93-2.44,1.43-5.34-7.9-15.64-13.08-25.16-12.49Z"/>
        <path class="cls-7" d="m638.42,244.41c.15-.89-.38-1.79-1.36-1.79h-18.72c-.73,0-1.16.46-1.3,1.01-.08.23-.12.48-.06.78,1.1,5.08,5.35,9.48,10.77,9.65,5.92.19,9.73-4.08,10.68-9.65Z"/>
        <path class="cls-7" d="m615.15,264.41c.76,8.22,10.05,4.97,12.06-.38.43-1.15,1.88-1.42,2.58-.34,3.62,5.53,16.15,8.92,19.09.69.61-1.7,3.34-.97,2.72.75-3.45,9.68-16.7,8.11-22.78,1.78-4.45,6.8-15.56,7.59-16.5-2.51-.17-1.81,2.66-1.8,2.83,0Z"/>
        <path class="cls-7" d="m670.6,253.04c7.19-1.16,14.45-1.82,21.67-2.83,1.78-.25,2.55,2.47.75,2.73-7.21,1.01-14.48,1.67-21.67,2.83-1.78.29-2.55-2.44-.75-2.73Z"/>
        <path class="cls-7" d="m667.2,258.64c7.58,1.02,15.03,2.75,22.61,3.77,1.78.24,1.8,3.07,0,2.83-7.58-1.02-15.04-2.75-22.61-3.77-1.78-.24-1.8-3.07,0-2.83Z"/>
        <path class="cls-7" d="m576.2,250.21c7.97,1.13,15.78,2.57,23.55,4.71,1.75.48,1.01,3.21-.75,2.72-7.77-2.14-15.58-3.58-23.55-4.71-1.8-.25-1.03-2.98.75-2.73Z"/>
        <path class="cls-7" d="m577.7,261.11c7.27-.43,14.42-.46,21.67-1.29,1.81-.21,1.79,2.62,0,2.83-7.25.84-14.4.87-21.67,1.29-1.82.11-1.81-2.72,0-2.83Z"/>
      </g>
      <path class="cls-14" d="m618.26,180.15s5.46,32.18,10.75,32.18,10.75-31.56,10.75-31.56c0,0-10.75-2.25-21.5-.63Z"/>
      <path class="cls-14" d="m597.56,182.36s6.05,23.79,8.84,23.79c2.63,0,3.27-25.48,3.27-25.48,0,0-6.05,0-12.11,1.7Z"/>
      <path class="cls-14" d="m647.83,181.78s-.83,24.37,2.95,24.42c3.3.05,6.59-22.7,6.59-22.7,0,0-5.66-1.19-9.54-1.72Z"/>
      <path class="cls-6" d="m539.74,305.64c.17,8.09.36,12.94.36,12.94h42.64c-.03-.19-.06-.38-.1-.57-4.06-19.96-30.14-21.19-42.9-12.37Z"/>
      <path class="cls-6" d="m685.92,318.58c-6.22-25.34-49.15-18.87-49.66,0h49.66Z"/>
      <path class="cls-9" d="m528.64,317.3c.2-19.26,44.52-25.81,49.91.71,2.31,11.34-4.49,25.82-16.36,9.13-.97,10.17-16.68,11.32-19.28.27-.97,9.9-14.48,9.78-14.27-10.12Z"/>
      <path class="cls-9" d="m632.16,318.78c.2-19.26,44.52-25.81,49.91.71,2.31,11.34-4.49,25.82-16.37,9.13-.97,10.17-16.68,11.32-19.27.27-.97,9.9-14.48,9.78-14.27-10.12Z"/>
      <path class="cls-6" d="m579.6,183.08s-1.82-31.49-12.34-31.56c-10.52-.07-17.86,39.96-16.38,44.53,9.37-5.07,28.72-12.96,28.72-12.96Z"/>
      <path class="cls-6" d="m679.06,185.49s7.64-32.32,22.13-33.97c14.49-1.65,15.12,44.53,15.12,44.53,0,0-11.39-10.55-37.25-10.55Z"/>
      <g class="cls-17">
        <rect class="cls-13" x="508.29" y="300.42" width="5.14" height="206.66"/>
        <rect class="cls-13" x="118.1" y="407.63" width="223.85" height="5.14" transform="translate(-237.46 461.51) rotate(-66.98)"/>
        <rect class="cls-13" x="183.56" y="407.63" width="223.84" height="5.14" transform="translate(-189.39 553.25) rotate(-70.67)"/>
        <rect class="cls-13" x="254.75" y="407.63" width="223.85" height="5.14" transform="translate(-122.16 662.7) rotate(-75.52)"/>
        <rect class="cls-13" x="328.33" y="407.63" width="223.85" height="5.14" transform="translate(-11.12 808.13) rotate(-84.38)"/>
        <rect class="cls-13" x="782.47" y="298.27" width="5.14" height="223.85" transform="translate(-97.89 339.55) rotate(-23.01)"/>
        <rect class="cls-13" x="717.01" y="298.27" width="5.14" height="223.84" transform="translate(-95.19 261.18) rotate(-19.32)"/>
        <rect class="cls-13" x="645.82" y="298.27" width="5.14" height="223.85" transform="translate(-81.97 175.14) rotate(-14.48)"/>
        <rect class="cls-13" x="572.24" y="298.27" width="5.14" height="223.85" transform="translate(-37.44 58.32) rotate(-5.63)"/>
      </g>
      <g id="GRASS-2" data-name="GRASS">
        <g>
          <path class="cls-5" d="m764.31,632.3c-48.33,2.15-61.85,111.87-61.85,111.87l26.4,10.57s83.77-124.59,35.44-122.44Z"/>
          <path class="cls-11" d="m715.52,744.76s33.5-90.51,41.67-88.02c5.39,1.64-9.36,14.51-36.99,88.02h-4.68Z"/>
        </g>
        <g>
          <path class="cls-5" d="m235.69,632.3c48.33,2.15,61.85,111.87,61.85,111.87l-26.4,10.57s-83.77-124.59-35.44-122.44Z"/>
          <path class="cls-11" d="m284.48,744.76s-33.5-90.51-41.67-88.02c-5.39,1.64,9.36,14.51,36.99,88.02h4.68Z"/>
        </g>
      </g>
    </g>
  </g>
</svg>