<?xml version="1.0" encoding="UTF-8"?>
<svg id="Livello_1" data-name="Livello 1" xmlns="http://www.w3.org/2000/svg" xmlns:xlink="http://www.w3.org/1999/xlink" viewBox="0 0 1000 1000">
  <defs>
    <style>
      .cls-1, .cls-2, .cls-3, .cls-4, .cls-5, .cls-6, .cls-7, .cls-8, .cls-9, .cls-10, .cls-11, .cls-12, .cls-13, .cls-14, .cls-15, .cls-16, .cls-17, .cls-18, .cls-19, .cls-20, .cls-21, .cls-22 {
        stroke-linecap: round;
        stroke-linejoin: round;
      }

      .cls-1, .cls-2, .cls-3, .cls-6, .cls-7, .cls-8, .cls-11, .cls-12, .cls-13, .cls-16, .cls-17, .cls-19, .cls-23, .cls-21, .cls-24, .cls-22 {
        stroke: #1c1c1b;
      }

      .cls-1, .cls-3, .cls-4, .cls-12 {
        stroke-width: .83px;
      }

      .cls-1, .cls-5, .cls-6, .cls-8, .cls-25, .cls-26, .cls-27, .cls-16, .cls-19, .cls-23, .cls-24, .cls-22 {
        fill: none;
      }

      .cls-2, .cls-3, .cls-28 {
        fill: #1c1c1b;
      }

      .cls-2, .cls-14, .cls-29 {
        stroke-width: 1.12px;
      }

      .cls-30, .cls-5, .cls-10, .cls-11 {
        stroke-width: 1.42px;
      }

      .cls-30, .cls-31, .cls-32, .cls-25, .cls-33, .cls-27, .cls-34, .cls-29, .cls-35, .cls-36, .cls-23, .cls-24 {
        stroke-miterlimit: 10;
      }

      .cls-30, .cls-31, .cls-32, .cls-25, .cls-29, .cls-20 {
        stroke: #1a1a1a;
      }

      .cls-30, .cls-31, .cls-32, .cls-29, .cls-20 {
        fill: #1a1a1a;
      }

      .cls-4, .cls-7, .cls-9, .cls-10, .cls-11, .cls-12, .cls-13, .cls-14, .cls-15, .cls-35, .cls-36, .cls-18 {
        fill: #fff;
      }

      .cls-4, .cls-9, .cls-33, .cls-10, .cls-27, .cls-14, .cls-15, .cls-35, .cls-36, .cls-18 {
        stroke: #000;
      }

      .cls-5 {
        stroke: #fff;
      }

      .cls-37 {
        clip-path: url(#clippath-2);
      }

      .cls-28, .cls-26, .cls-38, .cls-39, .cls-40, .cls-41 {
        stroke-width: 0px;
      }

      .cls-6, .cls-7, .cls-20, .cls-21 {
        stroke-width: 1.21px;
      }

      .cls-32 {
        stroke-width: .25px;
      }

      .cls-8 {
        stroke-width: .59px;
      }

      .cls-25 {
        stroke-width: .5px;
      }

      .cls-9 {
        stroke-width: .91px;
      }

      .cls-33, .cls-38, .cls-17, .cls-21 {
        fill: #bf92ff;
      }

      .cls-42 {
        clip-path: url(#clippath-1);
      }

      .cls-39 {
        fill: #763633;
      }

      .cls-13 {
        stroke-width: 1.16px;
      }

      .cls-27 {
        stroke-width: .86px;
      }

      .cls-40 {
        fill: #151724;
      }

      .cls-34 {
        stroke: #000100;
        stroke-width: .52px;
      }

      .cls-34, .cls-41 {
        fill: #000100;
      }

      .cls-15 {
        stroke-width: .94px;
      }

      .cls-16 {
        stroke-width: .61px;
      }

      .cls-43 {
        clip-path: url(#clippath);
      }

      .cls-35 {
        stroke-dasharray: 0 0 3 3;
      }

      .cls-44 {
        clip-path: url(#clippath-3);
      }

      .cls-45 {
        opacity: .21;
      }

      .cls-18 {
        stroke-width: 1.46px;
      }

      .cls-23 {
        stroke-dasharray: 0 0 3.02 3.02;
      }

      .cls-23, .cls-24 {
        stroke-width: 1px;
      }

      .cls-22 {
        stroke-width: .75px;
      }
    </style>
    <clipPath id="clippath">
      <circle class="cls-6" cx="788.35" cy="692.86" r="186.2" transform="translate(-259.02 760.38) rotate(-45)"/>
    </clipPath>
    <clipPath id="clippath-1">
      <circle class="cls-26" cx="716.87" cy="254.59" r="221.59"/>
    </clipPath>
    <clipPath id="clippath-2">
      <circle class="cls-1" cx="248.84" cy="239.89" r="159.44" transform="translate(-96.74 246.22) rotate(-45)"/>
    </clipPath>
    <clipPath id="clippath-3">
      <circle class="cls-26" cx="288.57" cy="735.32" r="231.68"/>
    </clipPath>
  </defs>
  <g class="cls-45">
    <g>
      <path class="cls-24" d="m217.23,910.58c-.5-.04-1-.09-1.5-.13"/>
      <path class="cls-23" d="m212.73,910.15c-69.87-7.57-134.57-52.16-165.85-114.67-31.95-63.85-27.91-144.2,10.29-204.82,20.06-31.82,48.44-57.99,67.33-90.51,24.51-42.19,31.31-91.84,46.11-138.26,32.03-100.49,86.83-191.86,180.04-242.28,93.21-50.42,223.78-59.32,325.85-31.38,51.22,14.02,102.82,41.03,126.48,88.26,25.82,51.54,13.14,116.17,40.01,167.17,18.97,36.01,54.79,59.74,81.02,90.91,66.56,79.09,62.47,200.95,11.03,290.86-51.44,89.91-141.49,152-235.66,196-41.25,19.27-84.69,35.88-130.12,38.86-108.35,7.11-216.81-63.42-320.69-33.29"/>
      <path class="cls-24" d="m247.14,927.43c-.48.14-.96.29-1.44.44"/>
    </g>
  </g>
  <circle class="cls-38" cx="788.35" cy="692.86" r="186.2" transform="translate(-259.02 760.38) rotate(-45)"/>
  <g>
    <g class="cls-43">
      <g>
        <g>
          <path class="cls-41" d="m844.16,635.94c-16.46-15.17-32.7-28.25-49.39-45.52-5.81-6.23-12.2-9.14-18.75-9.73l-3.32-39.99,57.93-.39c11.56,7.01,21.73,16.89,31.26,37.56,4.87,10.56,2.68,29.77,7.28,41.11,6.01,14.82,16.76,11.08,21.75,29.98,1.88,7.11-1.7,25.56-1.57,31.42.31,15.33,8,17.58,8,17.58-3.89,2.53-11.06,6.76-18.78,8.16l-4-11.88c-1.48,4.24-.59,12.65-.59,12.65-5.24,1.09-15.08,3.62-20.48,4.12-3.91-3.98-6.43-8.82-6.98-13.89-4.35-20.71,16.2-46.23-2.36-61.18Z"/>
          <path class="cls-41" d="m685.01,702.4c-1.13-5.74-9.14-18.14-8.83-25.49.85-19.54,13.34-28.21,16.05-43.97,2.08-12.06-4.87-25.18-2.37-36.53,4.9-22.23,12.74-34.04,22.54-43.36l56.69-11.96,5.24,39.5c-17.27-.53-35.49,14.46-47.55,27.75-9.57,9.5-1.48,25.58-2.22,38.37.68,6.28-9.34,11.6-12.85,18.33-6.57,17.66,12.44,36.79,5.87,54.44-.38,2.21-1.08,4.26-1.99,6.18-4.49.23-13.94-.09-18.3-.37-2.49-.16.05-11.96.05-11.96-2.19-.32-4.67,11.28-6.78,10.78-2.62-.62-7.27-1.89-9.73-2.82,0,0,7.14-3.85,4.18-18.9Z"/>
          <path class="cls-41" d="m711.72,665.04c3.51-6.73,13.53-12.05,12.85-18.33.74-12.79-7.35-28.87,2.22-38.37,12.06-13.29,30.28-28.28,47.55-27.75l4.44,33.43-2.77-33.32c6.56.59,12.94,3.5,18.75,9.73,16.69,17.27,32.93,30.34,49.39,45.52,18.56,14.95-1.99,40.46,2.36,61.18.55,5.06,3.06,9.91,6.98,13.89-28.16,2.57-56.5-2.02-64.64-3.51-8.62,3.6-41.53,16.55-73.26,18.18.91-1.93,1.61-3.97,1.99-6.18,6.57-17.66-12.44-36.79-5.87-54.44Z"/>
          <path class="cls-41" d="m885.62,700.86l4.92-18.37c1.99-7.41,4.04-15.07,4.4-22.87.4-8.77-1.52-16.55-5.56-22.52-2.56-3.77-6.03-6.96-9.39-10.04-3.95-3.62-8.03-7.36-10.5-12-3.67-6.89-3.43-14.55-3.18-22.66.13-4.28.27-8.72-.23-12.98-.71-6.03-3.29-17.69-12.51-28.01-8.9-9.95-21.41-15.91-37.19-17.69-16.33-1.85-23.07,7.16-31.61,18.57-1.38,1.84-2.82,3.77-4.36,5.73l.8.63c1.55-1.97,2.99-3.9,4.37-5.75,8.67-11.58,14.94-19.94,30.68-18.16,21.32,2.42,45.33,15.46,48.8,44.81.5,4.19.36,8.58.23,12.83-.24,7.89-.5,16.04,3.3,23.17,2.56,4.79,6.7,8.59,10.71,12.27,3.32,3.04,6.75,6.18,9.24,9.85,3.92,5.78,5.78,13.35,5.38,21.9-.36,7.69-2.4,15.3-4.37,22.66l-4.92,18.37.99.27Z"/>
          <path class="cls-41" d="m677,720.43c6.69-2.93,9.33-11.29,8.49-18.05-.77-6.16-3.71-11.77-6.56-17.2-.37-.71-.74-1.42-1.11-2.13-3.16-6.13-5.98-12.72-5.28-19.44.76-7.25,5.48-13.42,10.05-19.39,4.96-6.48,10.1-13.18,10.19-21.31.04-3.8-1.07-7.49-2.14-11.06-.34-1.13-.68-2.25-.98-3.39-4.84-18.07.07-38.79,12.5-52.77,12.43-13.98,32.43-21.29,50.94-18.61l.15-1.01c-18.85-2.73-39.2,4.7-51.85,18.94-12.65,14.23-17.64,35.32-12.72,53.72.31,1.14.65,2.28.99,3.41,1.05,3.49,2.13,7.11,2.09,10.75-.09,7.79-4.89,14.06-9.98,20.71-4.66,6.08-9.47,12.37-10.26,19.9-.73,6.99,2.16,13.75,5.39,20.02.37.71.74,1.42,1.11,2.14,2.8,5.35,5.7,10.88,6.45,16.86.8,6.38-1.66,14.26-7.89,16.99l.41.93Z"/>
          <path class="cls-7" d="m756.28,714.16s-31.49.76-48.68,19.19c-17.19,18.42-78.46,99.29-78.46,99.29,0,0,120.5,69.51,235.19,63.86,0,0,8.38-60.12,13.98-94.1,5.6-33.98-2.24-74.14-15.49-82.5-13.26-8.36-80.58-10.6-106.53-5.74Z"/>
          <path class="cls-6" d="m756.28,714.16s-31.49.76-48.68,19.19c-17.19,18.42-78.46,99.29-78.46,99.29,0,0,120.5,69.51,235.19,63.86,0,0,8.38-60.12,13.98-94.1,5.6-33.98-2.24-74.14-15.49-82.5-13.26-8.36-80.58-10.6-106.53-5.74Z"/>
          <path class="cls-7" d="m835.17,713.6s-44.21-4.82-78.89.56c0,0-1.92,36.85,32.21,36.73,38.4-.14,46.69-37.29,46.69-37.29Z"/>
          <path class="cls-6" d="m835.17,713.6s-44.21-4.82-78.89.56c0,0-1.92,36.85,32.21,36.73,38.4-.14,46.69-37.29,46.69-37.29Z"/>
          <g>
            <path class="cls-7" d="m829.65,716.95c-2.95,7.78-12.98,26.94-40.12,26.85-23.6-.08-27.88-18.34-28.62-26.37,20.84-3.35,57.8-1.22,68.75-.48Z"/>
            <path class="cls-7" d="m760.77,713.72c30.72-4.18,69.94,0,69.94,0,0,0-.3,1.26-1.05,3.24-10.95-.74-47.91-2.87-68.75.48-.21-2.26-.14-3.72-.14-3.72Z"/>
          </g>
          <g>
            <path class="cls-7" d="m778.69,720.55l-3.74-15.89-.86-3.66c11.27,2.24,28.2.25,36.42-.96l2.67,17.81"/>
            <path class="cls-20" d="m771.21,688.78l37.2-4.24,1.54,11.34.56,4.15c-8.22,1.22-25.15,3.2-36.42.96l-2.88-12.21Z"/>
          </g>
          <g>
            <path class="cls-7" d="m732.22,658.49l-4.58-27.79s-33.42-6.19-31.9,20.5c1.52,26.7,29.56,25.03,36.49,7.29Z"/>
            <path class="cls-41" d="m723.31,661c-.07,0-.15,0-.23-.02-.28-.09-.43-.4-.34-.68.04-.14,4.34-13.51-5.2-18.49-3.35-1.75-6.52-2.15-9.41-1.18-4.99,1.66-7.55,6.88-7.57,6.93-.13.27-.45.38-.71.25-.27-.13-.38-.45-.25-.71.11-.23,2.76-5.67,8.19-7.48,3.18-1.06,6.63-.64,10.26,1.25,10.36,5.4,5.77,19.63,5.72,19.77-.07.2-.25.34-.45.36Z"/>
            <path class="cls-41" d="m709.08,652.01c-.16.02-.33-.04-.45-.17-.2-.22-.19-.56.03-.76.08-.08,8.31-7.56,15.65-1.64.23.19.27.52.08.75-.19.23-.52.27-.75.08-6.62-5.34-14.17,1.52-14.25,1.59-.09.08-.2.13-.31.14Z"/>
            <path class="cls-7" d="m707.27,585.09s-4.73,23.23,2.35,55.25c6.53,29.53,33.12,56.86,70.09,55.28,34.75-1.48,62.74-18.78,68.28-68.34,5.54-49.56-15.32-82.94-60.61-87.06-44.6-4.05-74.9,15.51-80.11,44.86Z"/>
            <path class="cls-41" d="m811.72,608.24s4.29-5.69-7.91-9.27c-12.2-3.58-15.82-1.53-17.03,1.73-1.1,2.97,2.22,6.43,9.12,8.31,8.27,2.25,13.53,2.47,15.83-.76Z"/>
            <path class="cls-41" d="m726.4,624.35s-6.15-3.59,3.72-11.61c9.87-8.02,14.01-7.52,16.38-4.98,2.16,2.32.43,6.79-5.2,11.18-6.76,5.27-11.53,7.5-14.9,5.4Z"/>
            <path class="cls-41" d="m781.73,535.11s92.45-23.12,82.26,86.28c0,0-6.15-.09-14.29-3.87-1.62-.75-9.18-.34-11.19-.9-2.81-.77-4.16-8.87-7.71-9.69,0,0-1.36-12.79-4.1-13.32-2.14-.41-1.45,11.1-3.75,10.74-13.22-2.07-46.28.39-63.21,2.73-2.74.38-3.09-20.25-3.09-20.25-2.79.57-1.56,20.86-4.39,21.63-4.1,1.12-19.39,4.81-22.07,6.25,0,0-1.33-17.13-3.12-15.87-1.8,1.25.38,16.5-1.86,18.08-1.58,1.12-6.59,5.64-8.61,6.95-1.54,1,.41,6.73-1.11,7.81-5.48,3.88-13.73,4.66-14.93,6.99s-22.68-44.74.13-74.61c28.04-36.7,61.09-34.01,81.04-28.96Z"/>
            <g>
              <path class="cls-7" d="m834.82,613.63s23.45-14.74,30.4,11.08c6.95,25.82-20.19,33.06-32.35,18.39"/>
              <path class="cls-41" d="m842.12,642.69c.07-.02.14-.05.21-.09.24-.18.29-.51.11-.75-.08-.11-8.37-11.46-.87-19.19,2.63-2.71,5.51-4.09,8.56-4.08,5.26,0,9.33,4.16,9.37,4.2.21.21.54.22.76.01.21-.2.22-.54.02-.76-.18-.18-4.4-4.51-10.13-4.53-3.35,0-6.5,1.48-9.34,4.41-8.13,8.38.69,20.45.78,20.57.13.17.34.25.54.2Z"/>
              <path class="cls-41" d="m852.8,629.68c.16-.03.3-.14.37-.3.12-.27,0-.59-.27-.71-.1-.05-10.26-4.56-15.37,3.37-.16.25-.09.58.16.74.25.16.58.09.74-.16,4.61-7.15,13.93-3.01,14.02-2.97.11.05.23.06.34.04Z"/>
            </g>
            <g>
              <path class="cls-32" d="m770.16,662.9c8.02-1.61,7.61-8.46,7.6-8.53-.02-.29-.28-.51-.57-.49-.28.01-.52.28-.5.57.02.28.36,6.75-8.22,7.63-.29.05-.51.29-.48.59.03.29.29.51.59.48.56-.06,1.08-.14,1.58-.24Z"/>
              <path class="cls-41" d="m791.88,631.88c.72,3.57,3.67,5.99,6.6,5.4s4.72-3.96,4.01-7.53c-.72-3.57-3.67-5.99-6.6-5.4-2.93.59-4.72,3.96-4.01,7.53Z"/>
              <path class="cls-41" d="m735.29,643.24c.72,3.57,3.67,5.99,6.6,5.4,2.93-.59,4.72-3.96,4.01-7.53-.72-3.57-3.67-5.99-6.6-5.4-2.93.59-4.72,3.96-4.01,7.53Z"/>
              <path class="cls-32" d="m765.83,650.58c.2-.04.37-.19.42-.4.07-.29-.11-.58-.4-.64-.05-.01-4.64-1.11-7.25-4.5-2.05-2.66-2.49-7.18-.91-9.49.95-1.39,2.52-1.8,4.56-1.21.06.02.17.05.31.1,7.21,2.45,9.79.18,10.68-2.15,1.63-4.29-3.73-19.93-4.66-23.29-.08-.28-.38-.45-.66-.37-.29.08-.45.37-.37.66,2.5,9.06,5.96,19.27,4.69,22.62-1.05,2.76-4.19,3.27-9.33,1.52-.16-.05-.28-.09-.35-.12-2.49-.72-4.53-.15-5.75,1.63-1.83,2.69-1.39,7.71.95,10.75,2.85,3.69,7.65,4.84,7.86,4.88.08.02.15.02.23,0Z"/>
            </g>
          </g>
        </g>
        <path class="cls-7" d="m844.14,715.14s2.46,127.25,7.62,178.18c0,0-83.05,8.49-126.34-9.18,0,0,4.35-134.77,18.32-168.09l12.53-1.88s-5,50.44-4.38,65.87l74.03,5.32s-1.13-38.41,5.58-72.67l12.62,2.46Z"/>
        <polygon class="cls-16" points="816.2 805.22 748.94 799.2 744.84 842.09 816.47 848.44 816.24 811.91 816.2 805.22"/>
        <line class="cls-16" x1="816.24" y1="811.91" x2="748.6" y2="806.62"/>
        <path class="cls-20" d="m893.33,897.07s.76,15.19-45.04,14.04c-45.8-1.15-90.15-27.09-90.15-27.09l135.19,13.05Z"/>
        <g>
          <path class="cls-7" d="m787.86,767.93v93.6c0,5.07-4.12,9.02-9.2,8.83l-117.84-4.4c-5.08-.19-9.2-4.45-9.2-9.52v-93.6c0-5.07,4.12-9.02,9.2-8.83l117.84,4.4c5.08.19,9.2,4.45,9.2,9.52Z"/>
          <path class="cls-13" d="m782.42,772.64v89.29c0,4.83-3.96,8.61-8.84,8.42l-113.13-4.19c-4.88-.18-8.84-4.25-8.84-9.08v-89.29c0-4.83,3.96-8.6,8.84-8.42l113.13,4.19c4.88.18,8.84,4.25,8.84,9.08Z"/>
          <path class="cls-7" d="m708.2,807.05c4.47,0,8.1,3.63,8.1,8.1,0,4.47-3.62,8.1-8.1,8.1s-8.1-3.63-8.1-8.1,3.63-8.1,8.1-8.1Z"/>
          <path class="cls-6" d="m787.86,767.93v93.6c0,5.07-4.12,9.02-9.2,8.83l-117.84-4.4c-5.08-.19-9.2-4.45-9.2-9.52v-93.6c0-5.07,4.12-9.02,9.2-8.83l117.84,4.4c5.08.19,9.2,4.45,9.2,9.52Z"/>
        </g>
        <path class="cls-7" d="m765.94,840.69s-20.34-17.71-26.56-22.35c-6.23-4.64-1,6.51,6.73,16.88,0,0-18.55-15.61-25.21-14.67s16.51,19.85,16.51,19.85c0,0-19.26-15.91-24.15-12.64-4.9,3.28,18.77,19.05,18.77,19.05,0,0-19.82-11.81-22.2-9.55-2.37,2.25,18.51,16.1,18.51,16.1,0,0-17.88-11.66-20.45-6.98-2.56,4.68,32.48,24.76,47.4,30.57l10.66-36.27Z"/>
        <path class="cls-7" d="m844.14,715.14s45.48-.95,57.3,63.08c11.2,60.7,16.62,114.81-21.86,124.61-38.48,9.8-114.96-14.15-125.95-23.43,0,0,5.7-30.68,14.96-41.3,0,0,57.41,2.55,79.21,4.63,0,0-8.49-34.84-8.85-66.11,0,0-1.45-45.27,5.19-61.47Z"/>
        <path class="cls-6" d="m844.14,715.14s45.48-.95,57.3,63.08c11.2,60.7,16.62,114.81-21.86,124.61-38.48,9.8-114.96-14.15-125.95-23.43,0,0,5.7-30.68,14.96-41.3,0,0,57.41,2.55,79.21,4.63,0,0-8.49-34.84-8.85-66.11,0,0-1.45-45.27,5.19-61.47Z"/>
        <path class="cls-7" d="m874.49,844.82s-19.41-1.52-30.57-2.4"/>
        <path class="cls-6" d="m781.45,839.84s-9.37,15.99-15.58,45.28"/>
        <rect class="cls-6" x="823.33" y="775.99" width="18.1" height="12.98" rx="2.18" ry="2.18" transform="translate(1600.99 1627.68) rotate(-175.51)"/>
        <path class="cls-28" d="m825.75,794.34c-.24,3.06,2.05,5.74,5.11,5.98,3.06.24,5.74-2.05,5.98-5.11.24-3.06-2.05-5.74-5.11-5.98-3.06-.24-5.74,2.05-5.98,5.11Z"/>
        <path class="cls-7" d="m766.91,880.44c-.35-.21-8.7-3.43-11.3-5.28"/>
        <path class="cls-7" d="m767.93,874.47c-.35-.21-8.7-3.43-11.3-5.28"/>
        <line class="cls-7" x1="770.53" y1="866.99" x2="758.05" y2="862.71"/>
        <line class="cls-7" x1="772.57" y1="859.64" x2="760.21" y2="856.11"/>
        <line class="cls-7" x1="775.38" y1="851.81" x2="762.65" y2="848.43"/>
        <line class="cls-7" x1="778.22" y1="845.99" x2="765.05" y2="843.49"/>
        <line class="cls-7" x1="780.42" y1="841.22" x2="767.11" y2="840.54"/>
        <line class="cls-6" x1="827.76" y1="731.06" x2="824.37" y2="727.62"/>
        <line class="cls-6" x1="789.53" y1="743.8" x2="788.49" y2="750.89"/>
        <line class="cls-6" x1="797.72" y1="749.94" x2="797.39" y2="743.96"/>
        <line class="cls-6" x1="822.05" y1="736.56" x2="819.79" y2="733.12"/>
        <line class="cls-6" x1="815.61" y1="742.8" x2="813.56" y2="737.76"/>
        <line class="cls-6" x1="807.95" y1="747.08" x2="805.88" y2="741.98"/>
        <line class="cls-6" x1="781.9" y1="743.11" x2="780.59" y2="749.33"/>
        <line class="cls-6" x1="775.37" y1="741.14" x2="772.72" y2="746.97"/>
        <line class="cls-6" x1="769.62" y1="737.48" x2="766.42" y2="742.08"/>
        <line class="cls-6" x1="766.13" y1="732.91" x2="761.58" y2="736.03"/>
        <line class="cls-6" x1="763.23" y1="727.92" x2="759.24" y2="729.71"/>
        <line class="cls-6" x1="761.47" y1="722.38" x2="756.73" y2="723.2"/>
        <path class="cls-6" d="m760.32,717.16c-.28.07-3.54.82-3.54.82"/>
      </g>
    </g>
    <circle class="cls-6" cx="788.35" cy="692.86" r="186.2" transform="translate(-259.02 760.38) rotate(-45)"/>
  </g>
  <circle class="cls-36" cx="716.87" cy="254.59" r="221.59"/>
  <g>
    <g>
      <g>
        <path class="cls-26" d="m499.91,308.6c1.21,2.85,2,4.91,2,4.91,0,0-.9-2.07-2-4.91Z"/>
        <g>
          <path class="cls-26" d="m499.91,308.6c1.1,2.84,2,4.91,2,4.91,0,0-.79-2.06-2-4.91Z"/>
          <path class="cls-9" d="m560.14,368.32c-2.15-2.09-4.17-4.08-6.12-6.01l-.03.03,6.15,5.98Z"/>
          <path class="cls-9" d="m586.21,329.76l-32.19,32.54c1.96,1.93,3.98,3.92,6.12,6.01l-6.15-5.98.03-.03c-20.13-19.88-30.24-31.15-30.24-31.15,0,0,.52-18.88-4.08-26.13-4.6-7.25-8.48,12.62-8.48,12.62,0,0-8.08-24.62-13.55-25.5-3.8-.61-.27,9.96,2.24,16.46,1.21,2.85,2,4.91,2,4.91,0,0-.9-2.07-2-4.91-2.64-6.23-7.26-16.23-9.88-16.59-3.83-.52,3.34,24.1,3.34,24.1,0,0-6.03-18.7-10.85-17.59-4.09.94,4.15,22.01,4.15,22.01,0,0-6.29-15.35-9.74-13.41-2.07,1.16,4.8,26.21,21.37,38.65,0,0,25.07,95.86,80.2,66.13,6.12-3.3,30.38-20.42,51.36-36.21-21.65-11.08-36.2-32.47-43.65-45.93Z"/>
          <path class="cls-31" d="m662,349.43c-8.16-2.77-43.61-28.44-54.63-41.08l-21.17,21.4c7.45,13.45,22,34.85,43.65,45.93,15-11.28,28.34-21.89,32.15-26.25Z"/>
        </g>
      </g>
      <path class="cls-9" d="m499.91,308.6c1.2,2.85,2,4.91,2,4.91,0,0-.9-2.07-2-4.91Z"/>
    </g>
    <g>
      <path class="cls-41" d="m755.48,234.23s41.73-2.06,51.99,25.64c2.11,18.01,9.72,20.53,17.74,24.13,15.07,6.77,26.86,24.39,20.83,41.1-9.41,26.12-2.23,30.41-2.28,40.62-.1,21.25-27.69,29.02-45.87,13.52-18.18-15.5-10.02-18.19-27.43-25.26-17.41-7.07-48.1-13.05-45.23-39.9,2.87-26.85,11.73-32.22,2.63-36.64-9.11-4.42-39.39-9.49-31.67-33.69,7.72-24.2,59.28-9.52,59.28-9.52Z"/>
      <g>
        <path class="cls-14" d="m764.18,227.48c4.68-4.65,11.13-7.48,17.72-7.79,6.59-.31,13.27,1.92,18.36,6.12-3.5,6.46-10.42,10.94-17.75,11.49-7.33.55-14.84-2.84-19.27-8.71"/>
        <path class="cls-14" d="m766.73,230.86c6.49-1.19,13.41.11,19.02,3.58,5.61,3.47,9.87,9.08,11.7,15.42-6.54,3.36-14.78,3.15-21.14-.54-6.36-3.68-10.64-10.73-10.98-18.07"/>
        <path class="cls-14" d="m710.66,250.73c2.15,10.19,18.23,15.43,35.93,11.7,17.69-3.73,30.3-15.01,28.15-25.2-2.15-10.19-18.23-15.43-35.93-11.7-17.69,3.73-30.3,15.01-28.15,25.2Z"/>
        <path class="cls-41" d="m712.64,83.74s35.47-9.12,58.89,9.65c18.68,12.07,19.91,18.54,22.81,37.55.67,4.39,2.06,8.64,4.16,12.56,8.14,15.21,20.8,36.36,14.85,55.6-4.08,13.2-12.8,17.9-26.62,25.52-13.82,7.62-9.54,9.85-19.05,19.13-17.62,17.21-39.62,12.12-61.35,9.63l6.3-169.64Z"/>
        <path class="cls-41" d="m715.41,83.83s-34.29-11.29-59.8,5.96c-20.01,10.86-21.99,17.23-27.08,36-1.17,4.33-3.05,8.48-5.6,12.26-9.87,14.65-24.93,34.94-21.24,54.48,2.54,13.4,10.68,18.63,23.57,27.08,12.89,8.45,8.37,10.4,16.76,20.25,15.56,18.24,38.07,14.54,60.02,13.4l13.36-169.42Z"/>
      </g>
    </g>
    <g class="cls-42">
      <g>
        <path class="cls-2" d="m765.33,436.13s10.62,14.25,9.95,52.08l-156.66-6.61s-3.73-22.14,8.57-60.01"/>
        <g>
          <g>
            <path class="cls-14" d="m626.88,363.3s-28.89-18.38-36.09-44.36c0,0,33.77-43.09,55.34-48.08"/>
            <path class="cls-14" d="m632.29,317.48c-19.69,66.08-19.81,102.1-19.81,102.1h0c26.37,25.02,81.39,33.93,117.73,33.26,37.2-.69,58.14-10.8,58.14-10.8,0,0,0-42.71-13.07-114.42,0,0-9.95-39.38-38.53-59.66"/>
            <path class="cls-14" d="m646.13,270.85c4.95-1.49,10.27-2.83,15.96-3.97h0c11.57,30.02,52.15,34.58,70.09,7.87l4.57-6.8"/>
            <g>
              <path class="cls-14" d="m732.79,273.85c-27.24-8.14-55.81-5.05-69.25-3.2h0c10.96,28.43,49.39,32.75,66.39,7.46l2.86-4.26Z"/>
              <path class="cls-2" d="m732.79,273.85l3.96-5.89c-9.59-3.04-20.47-4.92-32.8-5.33-16.05-.52-29.9,1.07-41.86,4.25l1.45,3.77c13.44-1.85,42.01-4.94,69.25,3.2Z"/>
            </g>
          </g>
          <g>
            <path class="cls-41" d="m725.02,240.05l-1.62,13.86c-14.85,3.32-30.06,3.29-44.01-.23l.39-19.88,45.23,6.25Z"/>
            <path class="cls-14" d="m679.01,273.59l.39-19.91c13.95,3.51,29.15,3.55,44.01.23l-2.45,21.05"/>
          </g>
          <path class="cls-14" d="m650.69,197.91l.39-29.88s-33.75-12.7-37.14,15.47c-3.39,28.17,26.21,31.66,36.75,14.41Z"/>
          <path class="cls-41" d="m640.91,198.88c-.08,0-.16-.03-.23-.07-.28-.15-.38-.49-.23-.77.07-.13,7.06-13.3-1.99-20.28-3.18-2.45-6.41-3.46-9.61-2.99-5.53.81-9.16,5.78-9.2,5.83-.18.25-.54.31-.79.13-.26-.18-.31-.54-.13-.79.16-.22,3.94-5.41,9.95-6.29,3.52-.51,7.05.57,10.48,3.22,9.81,7.57,2.37,21.58,2.29,21.72-.11.2-.32.31-.54.3Z"/>
          <path class="cls-41" d="m627.73,186.83c-.17-.01-.34-.1-.44-.26-.17-.26-.09-.62.17-.79.1-.06,10.08-6.34,16.65,1.21.21.24.18.6-.06.8-.24.21-.6.18-.8-.06-5.92-6.81-15.09-1.05-15.18-1-.11.07-.23.1-.35.09Z"/>
          <path class="cls-14" d="m638.94,120.17s-9.27,23.38-7.84,58.15c1.31,32.06,24,65.56,62.91,70.8,36.57,4.93,69.03-7.93,84.05-58.66,15.02-50.73-.55-89.49-47.09-102.23-45.83-12.55-81.12,2.25-92.03,31.93Z"/>
          <g>
            <path class="cls-41" d="m782.96,181.63s-21.39.79-24.77-23.97c-2.49-18.25-14.64-28.11-28.2-26.97-14.47,1.21-28.94-15.29-27.92-25.18l-.53-28.82s67.43-.57,79.37,36.79c11.94,37.36,7.88,68.55,7.88,68.55l-5.82-.4Z"/>
            <path class="cls-41" d="m625.97,170.76s13.27,3.19,20.03-20.86c4.98-17.74,18.37-25.82,31.65-22.83,14.17,3.2,30.77-11.15,31.13-21.09l4.5-28.47s-58.91-9.31-75.88,26.04c-16.97,35.35-11.43,67.21-11.43,67.21h0Z"/>
          </g>
          <g>
            <path class="cls-14" d="m766.15,180.18s28.25-8.11,27.72,20.26c-.53,28.37-30.32,27.74-38.39,9.21"/>
            <path class="cls-41" d="m765.03,211.95c.08,0,.16,0,.24-.03.29-.11.44-.44.33-.73-.05-.14-5.15-14.15,4.76-19.81,3.48-1.99,6.82-2.54,9.93-1.64,5.36,1.56,8.28,6.99,8.31,7.04.15.28.49.38.77.24.28-.15.38-.49.24-.77-.13-.24-3.16-5.9-8.99-7.6-3.42-.99-7.06-.41-10.82,1.74-10.76,6.14-5.32,21.05-5.26,21.2.08.21.28.35.49.37Z"/>
            <path class="cls-41" d="m779.75,201.83c.17.01.35-.05.47-.2.2-.24.18-.6-.06-.8-.09-.08-9.11-7.67-16.66-1.1-.24.21-.26.57-.06.8.21.24.56.26.8.06,6.81-5.93,15.09,1.03,15.17,1.11.1.08.21.13.33.13Z"/>
          </g>
          <g>
            <path class="cls-32" d="m691.7,209.95c8.64.83,10.33-6.25,10.35-6.32.07-.31-.12-.61-.43-.68-.29-.07-.61.12-.68.43-.07.29-1.72,6.96-10.69,5.21-.31-.04-.61.14-.67.45-.06.31.14.61.45.67.58.11,1.14.2,1.67.25Z"/>
            <path class="cls-41" d="m746.78,166.87s6.11-4.46-5.18-11.85c-11.28-7.4-15.59-6.43-17.82-3.49-2.03,2.68.28,7.22,6.7,11.24,7.71,4.83,12.98,6.67,16.31,4.1Z"/>
            <path class="cls-41" d="m723.31,185.14c-.37,3.84,1.88,7.21,5.04,7.51,3.15.3,6.01-2.57,6.38-6.41.37-3.84-1.88-7.21-5.04-7.51-3.15-.3-6.01,2.56-6.38,6.41Z"/>
            <path class="cls-41" d="m662.35,179.25c-.37,3.84,1.88,7.21,5.04,7.51,3.15.3,6.01-2.57,6.38-6.41.37-3.84-1.88-7.21-5.04-7.51-3.15-.3-6.01,2.57-6.38,6.41Z"/>
            <path class="cls-41" d="m655.19,156.96s-5.14-5.54,7.35-10.64c12.49-5.1,16.54-3.32,18.16-.01,1.48,3.02-1.65,7.03-8.73,9.75-8.49,3.27-14.01,4.07-16.79.9Z"/>
            <path class="cls-32" d="m691.1,196.11c.21.02.43-.08.55-.28.16-.27.06-.62-.21-.78-.04-.03-4.36-2.56-5.98-6.8-1.27-3.33-.32-8.05,1.99-9.92,1.39-1.12,3.12-1.06,5.01.18.06.04.15.11.28.2,6.57,4.71,9.88,3.2,11.5,1.1,2.98-3.85,2.35-21.38,2.44-25.08,0-.31-.25-.57-.55-.58-.31,0-.57.24-.58.55-.25,9.96.12,21.4-2.21,24.42-1.92,2.48-5.26,2.03-9.94-1.33-.14-.1-.25-.18-.32-.23-2.31-1.5-4.56-1.54-6.34-.11-2.69,2.17-3.79,7.4-2.34,11.2,1.76,4.63,6.28,7.27,6.47,7.38.07.04.15.07.23.07Z"/>
          </g>
        </g>
      </g>
    </g>
    <g>
      <g>
        <path class="cls-26" d="m587.22,370.2c2.12,2.39,3.57,4.15,3.57,4.15,0,0-1.56-1.73-3.57-4.15Z"/>
        <g>
          <path class="cls-26" d="m587.22,370.2c2.01,2.42,3.57,4.15,3.57,4.15,0,0-1.45-1.76-3.57-4.15Z"/>
          <path class="cls-15" d="m666.01,409c-2.79-1.35-5.43-2.63-7.98-3.89l-.03.03,8.01,3.85Z"/>
          <path class="cls-15" d="m687.61,369.39l-29.58,35.73c2.56,1.25,5.19,2.54,7.98,3.89l-8.01-3.85.03-.03c-26.32-12.9-39.95-20.63-39.95-20.63,0,0-5.67-18.63-12.56-24.23-6.9-5.6-4.21,15.09-4.21,15.09,0,0-16-21.45-21.67-20.52-3.94.64,2.99,9.83,7.58,15.36,2.12,2.39,3.57,4.15,3.57,4.15,0,0-1.56-1.73-3.57-4.15-4.63-5.24-12.45-13.51-15.15-13.01-3.94.73,11.17,22.48,11.17,22.48,0,0-12.05-16.32-16.43-13.67-3.72,2.25,11.28,20.17,11.28,20.17,0,0-11.21-12.96-13.96-9.95-1.66,1.81,13.29,24.07,33.66,30.84,0,0,61.48,79.44,106,32.44,5.05-5.33,22.15-23.49,36.33-40.09-29.03-8.1-44.76-21.23-52.51-30.02Z"/>
          <path class="cls-31" d="m713.19,338.49l-25.58,30.9c7.74,8.79,23.47,21.92,52.51,30.02,9.61-11.26,17.88-21.8,20.13-27.14-8.93-.06-32.09-25.01-47.06-33.78Z"/>
        </g>
      </g>
      <path class="cls-15" d="m587.22,370.2c2.12,2.39,3.57,4.15,3.57,4.15,0,0-1.56-1.73-3.57-4.15Z"/>
    </g>
    <path class="cls-14" d="m699.55,328.27c-2.83,9-6.83,13.76-14.41,34.04,0,0,32.72,30.09,80.2,24.39,22.7-70.84,3.59-103.27-27.39-115.93"/>
  </g>
  <circle class="cls-38" cx="249.43" cy="240.42" r="159.44" transform="translate(-96.95 246.79) rotate(-45)"/>
  <g>
    <g class="cls-37">
      <path class="cls-12" d="m312.59,399.37l-94.26,14.37-77.62-34.06s17.47-103.03,34.47-119.95c19.43-19.35,47.52-16.74,47.52-16.74l68.1,10.79s22.82,2.67,38.28,26.26c11.15,17,29.84,38.55,29.84,38.55"/>
      <path class="cls-12" d="m312.88,399.29s4.53-47.47,6.58-77.97"/>
    </g>
    <circle class="cls-1" cx="248.84" cy="239.89" r="159.44" transform="translate(-96.74 246.22) rotate(-45)"/>
  </g>
  <path class="cls-12" d="m369.88,292.69s9.34-29.84,14.75-40.53c0,0,13.33,13.85,40.81,12.03,0,0-7.11,47.61-20.12,72.93,0,0-23.82,65.13-75.05,34.24,6.29-10.08,14.63-27.52,23.75-57.5l15.85-21.18Z"/>
  <g>
    <path class="cls-38" d="m376.21,198.62h140.37c2.65,0,4.81,2.15,4.81,4.81v93.57c0,2.65-2.15,4.81-4.81,4.81h-140.37c-2.65,0-4.81-2.15-4.81-4.81v-93.57c0-2.65,2.15-4.81,4.81-4.81Z" transform="translate(42.76 -64.35) rotate(8.66)"/>
    <path class="cls-17" d="m376.21,198.62h140.37c2.65,0,4.81,2.15,4.81,4.81v93.57c0,2.65-2.15,4.81-4.81,4.81h-140.37c-2.65,0-4.81-2.15-4.81-4.81v-93.57c0-2.65,2.15-4.81,4.81-4.81Z" transform="translate(42.76 -64.35) rotate(8.66)"/>
    <path class="cls-17" d="m383.72,192.21l53.12,66.97c3.55,4.48,9.96,5.47,14.69,2.27l71.93-48.57"/>
    <line class="cls-17" x1="471.27" y1="249.65" x2="508.77" y2="309.41"/>
    <line class="cls-17" x1="423.3" y1="242.35" x2="369.72" y2="288.24"/>
  </g>
  <path class="cls-3" d="m354.03,313.87c-9.13,29.97-17.47,47.41-23.75,57.5-4-2.41-8.17-5.39-12.5-9.05l36.26-48.44Z"/>
  <g>
    <g>
      <path class="cls-14" d="m288.5,257.78c-3.73,4.6-13.06,11.1-35.27,7.6-23.04-3.63-31.67-12.02-34.9-17.53,31.53.64,57.88,6.62,70.17,9.93Z"/>
      <path class="cls-29" d="m218.33,247.85c-1.78-3.04-1.93-5.21-1.93-5.21,59.76,3.67,74.4,11.13,74.4,11.13,0,0-.5,1.78-2.3,4-12.3-3.31-38.65-9.3-70.17-9.93Z"/>
    </g>
    <g>
      <path class="cls-14" d="m271.57,261.62l2.33-10.75.79-3.75c-11.43,2.56-28.74.96-37.15-.08l-.39,7.82"/>
      <path class="cls-29" d="m278.41,229.06l-38.02-3.4-2.38,17.14-.47,4.24c8.41,1.04,25.72,2.64,37.15.08l3.72-18.07Z"/>
    </g>
    <g>
      <path class="cls-41" d="m213.97,90.48s-11.18-7.03-8.14-11.24c2.92-4.05,12.36,6.97,12.36,6.97,0,0-5.84-12.59,0-15.51,5.84-2.92,6.28,16.63,6.28,16.63l-10.5,3.15Z"/>
      <path class="cls-41" d="m324.72,122.1s12.61,6.82,9.35,38.45c-6.42,62.34-35.64,75.81-75.98,75.42-38.49-.36-73.92-2.34-89.93-79.57-9.87-47.6,13.67-60.51,63.05-69.17,48.63-8.53,84.3,7.16,93.52,34.86Z"/>
      <path class="cls-14" d="m303.99,194.21l1.53-27.22s31.52-9.43,32.82,16.42c1.31,25.85-25.85,27.16-34.35,10.8Z"/>
      <path class="cls-39" d="m312.82,195.71c.07,0,.14-.02.21-.05.26-.12.38-.43.26-.69-.06-.13-5.58-12.55,3.09-18.33,3.05-2.03,6.05-2.74,8.93-2.12,4.98,1.08,7.97,5.84,8.01,5.88.15.24.47.32.71.17.24-.15.32-.47.17-.71-.13-.21-3.25-5.17-8.66-6.35-3.17-.69-6.45.07-9.74,2.27-9.4,6.27-3.52,19.49-3.46,19.62.09.19.28.3.47.3Z"/>
      <path class="cls-39" d="m325.58,185.57c.16,0,.31-.07.42-.21.17-.23.12-.55-.11-.73-.09-.06-8.78-6.41-15.23.05-.2.2-.2.53,0,.73.2.2.53.2.73,0,5.82-5.83,13.79,0,13.87.05.09.07.2.1.31.1Z"/>
      <path class="cls-14" d="m323.41,125.52s6.96,21.86,3.47,53.41c-3.22,29.09-24.19,58.06-61.71,60.47-33.59,2.15-62.32-11.56-72.79-58.68-10.47-47.11,6.14-81.4,49.29-90.06,42.5-8.53,73.68,7.16,81.74,34.86Z"/>
      <path class="cls-41" d="m225.21,118.8s15.89,24.18,46.89,26.97c2.62.24,5.9.32,9.41.31,15.02-.06,28.84,7.54,37.42,19.87,2.69,3.86,5.65,6.63,8.54,6.42,0,0,6.41,8.59,8.89,2.17,5.26-13.59,8.46-41.95,2.5-63.46-10.84-39.11-67.32-53.39-116.34-25.85,0,0-77.12,6.08-44.89,87.15l18.36,2.17s23.84-22.5,29.21-55.74Z"/>
      <path class="cls-25" d="m220.56,116.93c8.47,14.75,23.83,25.33,40.62,28,10.85,1.72,22.46.4,32.36,5.15,7.57,3.63,13.15,10.39,20.13,15.05,6.98,4.66,17.17,6.79,23.28,1.03"/>
      <g>
        <path class="cls-14" d="m200.16,168.28s-25.19-9.16-26.5,16.69c-1.31,25.85,25.85,27.16,34.35,10.8"/>
        <path class="cls-41" d="m199.17,197.26c-.07,0-.14-.02-.21-.05-.26-.12-.38-.43-.26-.69.06-.13,5.58-12.55-3.09-18.33-3.05-2.03-6.05-2.74-8.93-2.12-4.98,1.08-7.97,5.84-8.01,5.88-.15.24-.47.32-.71.17-.24-.15-.32-.47-.17-.71.13-.21,3.25-5.17,8.66-6.35,3.17-.69,6.45.07,9.74,2.27,9.4,6.27,3.52,19.49,3.46,19.62-.09.19-.28.3-.47.3Z"/>
        <path class="cls-41" d="m186.41,187.13c-.16,0-.31-.07-.42-.21-.17-.23-.12-.55.11-.73.09-.06,8.78-6.41,15.23.05.2.2.2.53,0,.73-.2.2-.53.2-.73,0-5.82-5.83-13.79,0-13.87.05-.09.07-.2.1-.31.1Z"/>
      </g>
      <g>
        <path class="cls-32" d="m271.72,204.05c-7.91,0-8.83-6.58-8.84-6.65-.04-.28.16-.54.45-.58.27-.04.54.16.58.45.03.27.95,6.47,9.25,5.67.29,0,.54.18.57.47.03.29-.18.54-.47.57-.54.05-1.05.08-1.54.08Z"/>
        <path class="cls-41" d="m225.49,160.11s-5.15-4.58,5.74-10.31c10.89-5.73,14.72-4.47,16.49-1.6,1.61,2.61-.88,6.53-7.07,9.62-7.42,3.71-12.37,4.92-15.16,2.29Z"/>
        <path class="cls-41" d="m245.2,178.76c0,3.52-2.34,6.38-5.23,6.38s-5.23-2.86-5.23-6.38,2.34-6.38,5.23-6.38,5.23,2.86,5.23,6.38Z"/>
        <path class="cls-41" d="m301.06,178.76c0,3.52-2.34,6.38-5.24,6.38s-5.23-2.86-5.23-6.38,2.34-6.38,5.23-6.38,5.24,2.86,5.24,6.38Z"/>
        <path class="cls-41" d="m309.53,162.56s5.15-4.58-5.74-10.31c-10.89-5.73-14.72-4.47-16.49-1.6-1.61,2.61.88,6.53,7.07,9.62,7.42,3.71,12.37,4.92,15.16,2.29Z"/>
        <path class="cls-32" d="m273.48,191.54c-.2,0-.38-.11-.47-.3-.12-.26,0-.57.26-.69.04-.02,4.19-1.94,6.02-5.65,1.44-2.91.99-7.29-.94-9.18-1.16-1.14-2.74-1.23-4.56-.28-.06.03-.15.08-.27.15-6.38,3.7-9.25,2.04-10.54,0-2.37-3.76-.26-19.62-.02-22.99.02-.29.27-.49.55-.48.29.02.5.27.48.55-.65,9.07-1.99,19.42-.14,22.36,1.52,2.42,4.6,2.31,9.15-.33.14-.08.24-.14.31-.18,2.23-1.16,4.27-1,5.77.45,2.25,2.21,2.79,7.06,1.14,10.38-2,4.04-6.34,6.05-6.52,6.13-.07.03-.14.05-.21.05Z"/>
      </g>
      <g>
        <path class="cls-41" d="m279.72,178.92c.25-15.01,12.66-27.02,27.67-26.77,15.01.25,27.02,12.66,26.77,27.67-.25,15.01-12.66,27.02-27.67,26.77-15.01-.25-27.02-12.66-26.77-27.67Zm1.45.02c-.23,14.21,11.14,25.96,25.35,26.2,14.21.23,25.96-11.14,26.2-25.35.23-14.21-11.14-25.96-25.35-26.2-14.21-.23-25.96,11.14-26.2,25.35Z"/>
        <path class="cls-40" d="m205.31,177.69c.25-15.01,12.66-27.02,27.67-26.77,15.01.25,27.02,12.66,26.77,27.67-.25,15.01-12.66,27.02-27.67,26.77-15.01-.25-27.02-12.66-26.77-27.67Zm1.45.02c-.23,14.21,11.14,25.96,25.35,26.2,14.21.23,25.96-11.14,26.2-25.35.23-14.21-11.14-25.96-25.35-26.2-14.21-.23-25.96,11.14-26.2,25.35Z"/>
        <path class="cls-40" d="m259.08,175.51c.12,0,.25-.03.37-.09,10.46-5.9,20.86.28,20.96.35.34.21.79.1.99-.24.21-.34.1-.79-.24-.99-.11-.07-11.24-6.67-22.43-.37-.35.2-.47.64-.28.99.13.23.37.36.62.37Z"/>
        <path class="cls-41" d="m279.07,174.99c-1.49-1.46-3.54-1.62-5.77-.45-.07.03-.17.1-.31.18-2.52,1.46-4.57,2.12-6.17,2.03,0,.32.08.68.16,1.06,1.61.02,3.73-.57,6.53-2.19.12-.07.21-.12.27-.15,1.82-.96,3.4-.86,4.56.28,1.93,1.89,2.38,6.27.94,9.18-1.84,3.71-5.98,5.63-6.02,5.65-.26.12-.38.42-.26.69.09.19.28.3.47.3.07,0,.14-.02.21-.05.18-.08,4.52-2.09,6.52-6.13,1.65-3.32,1.11-8.17-1.14-10.38Z"/>
      </g>
    </g>
  </g>
  <line class="cls-14" x1="371.51" y1="286.16" x2="356.01" y2="327.61"/>
  <path class="cls-3" d="m178.27,302.99s3.61,31.52,19.46,52.85c15.85,21.33,38.5,4.59,38.5,4.59l-57.95-57.45Z"/>
  <path class="cls-8" d="m295.49,255.46s-5.8,21.85-43.62,15.96c-37.82-5.89-40.98-27.91-41.2-27.52"/>
  <path class="cls-2" d="m380.92,301.23s-4.88-14.97-30.05-30.11c0,0,6.24,23.61,30.09,30.13"/>
  <path class="cls-4" d="m369.51,302.63c4.12-4.37,6.53-7.19,6.53-7.19,17.48-7.47,29.07-28.3,27.48-29.79-2.65-2.48-11.6,9.83-11.6,9.83,0,0,11.94-16.98,8.5-18.71-4.06-2.04-13.51,13.31-13.51,13.31,0,0,11.76-20.39,8.24-20.76-2.42-.25-8.72,7.65-12.43,12.63-1.6,2.3-2.85,3.94-2.85,3.94,0,0,1.16-1.67,2.85-3.94,3.65-5.24,9.11-13.89,5.58-14.18-5.06-.41-17.64,19.77-17.64,19.77,0,0,.88-18.56-4.8-13.1-5.68,5.46-6.75,15.98-6.75,15.98,0,0-4.72,1.83-12.9,5.72"/>
  <path class="cls-12" d="m176.09,298.87s18.68,39.58,29.31,50.73c56.07,58.82,122.91,6,122.91,6,23.55-16,52.61-54.37,52.61-54.37-24.99-11.57-30.05-30.11-30.05-30.11-9.87,6.78-82.72,44.02-82.72,44.02,0,0-15.4-25.46-34.12-43.09"/>
  <path class="cls-12" d="m176.09,298.87s18.68,39.58,29.31,50.73c56.07,58.82,122.91,6,122.91,6,23.55-16,52.61-54.37,52.61-54.37-24.99-11.57-30.05-30.11-30.05-30.11-9.87,6.78-82.72,44.02-82.72,44.02,0,0-15.4-25.46-34.12-43.09"/>
  <path class="cls-8" d="m375.97,306.2s-16.3-5.72-31.52-30.36"/>
  <circle class="cls-36" cx="288.57" cy="735.32" r="231.68"/>
  <g class="cls-44">
    <g>
      <path class="cls-41" d="m380.96,819.87c14.25,20.76,28.96,44.64,28.96,44.64,0,0,10.75-38.27,17.22-52.05,0,0,17.46,17.1,52.31,13.75,0,0-7.25,60.76-22.82,93.43l-162.64,84.55-175.81-60.97s16.03-108.62,31.25-131.88c19.09-29.17,69.87-28.44,69.87-28.44l95.49-5.15s35.01,1.42,51.19,21.56c4.4,5.48,9.66,12.8,14.98,20.56"/>
      <path class="cls-10" d="m208.39,785.15c5.52,9.34,27.9,32.87,69.6,28.39,37.27-4.01,47.7-32.38,47.7-32.38,0,0-25.31-14.61-117.31,3.99Z"/>
      <g>
        <g>
          <path class="cls-11" d="m312.95,783.32c-3.46,6.68-13.42,17.16-41.98,18.48-29.62,1.37-42.51-6.87-47.94-12.91,39.42-7.27,73.76-6.55,89.93-5.57Z"/>
          <path class="cls-10" d="m223.03,788.89c-2.99-3.33-3.73-5.99-3.73-5.99,75.35-10.7,95.49-5.15,95.49-5.15,0,0-.17,2.35-1.84,5.57-16.16-.98-50.5-1.7-89.93,5.57Z"/>
        </g>
        <g>
          <path class="cls-11" d="m292.85,792.43l.16-13.98.02-4.87c-13.58,6.11-35.55,8.54-46.28,9.4l1.51,9.84"/>
          <path class="cls-30" d="m293.04,750.13l-48.22,5.49,1.42,21.95.5,5.41c10.74-.86,32.7-3.28,46.28-9.4v-23.45Z"/>
        </g>
        <path class="cls-41" d="m341.28,601.16s15.26,26.66,17.68,68.68c2.23,38.76-23.86,82.61-75.1,95.04-48.16,11.69-93.05,1.35-119.38-57.29-26.33-58.63-10.39-107.69,50.1-130.34,59.57-22.31,108.46-10.08,126.7,23.9Z"/>
        <path class="cls-18" d="m328.33,661.52s38.83-19.75,46.66,13.62c7.83,33.37-27.25,41.51-42.21,22.21"/>
        <path class="cls-41" d="m344.65,697.21c.09-.02.19-.05.27-.11.31-.22.39-.64.17-.95-.1-.15-10.25-15.03-.32-24.62,3.49-3.37,7.23-5,11.14-4.87,6.74.23,11.77,5.72,11.82,5.77.26.28.69.3.97.05.28-.25.3-.69.05-.97-.22-.24-5.46-5.97-12.79-6.22-4.29-.15-8.38,1.62-12.15,5.26-10.77,10.4.03,26.23.15,26.39.16.23.43.33.69.28Z"/>
        <path class="cls-41" d="m358.88,680.98c.21-.04.39-.17.49-.37.17-.34.03-.75-.31-.92-.13-.06-12.96-6.27-19.83,3.67-.22.31-.14.74.17.95.31.22.74.14.95-.17,6.2-8.97,17.97-3.28,18.09-3.22.14.07.29.08.43.06Z"/>
        <path class="cls-18" d="m341.62,602.28s14.25,26.84,17.17,68.78c2.7,38.67-20.07,81.92-66.09,93.41-43.25,10.8-83.95-.31-108.75-59.22-24.8-58.91-11.28-107.53,42.9-129.03,53.36-21.18,97.7-8.12,114.77,26.07Z"/>
        <path class="cls-41" d="m197.7,693.3s24.57-26.48,15.08-70.86l-46.02,10.72s-12.55,26.74,5.2,63.04l25.74-2.89Z"/>
        <path class="cls-41" d="m360.05,664.59s-25.44-12.59-31.64-49.96l21.01-13.76s20.06,16.75,16.21,56.98l-5.58,6.75Z"/>
        <g>
          <path class="cls-18" d="m199.9,690.28s-35-5.97-30.58,28.02c4.42,33.99,40.11,29.26,47.32,5.93"/>
          <path class="cls-41" d="m205.48,728.28c-.09.02-.19.01-.29,0-.37-.09-.59-.47-.5-.83.04-.18,4.3-17.68-8.36-23.15-4.45-1.92-8.53-2.14-12.14-.64-6.23,2.59-9.01,9.49-9.04,9.56-.14.35-.54.53-.89.39-.35-.14-.53-.54-.39-.89.12-.31,3.01-7.51,9.78-10.32,3.97-1.65,8.42-1.44,13.23.65,13.74,5.94,9.2,24.56,9.15,24.75-.07.27-.29.46-.54.51Z"/>
          <path class="cls-41" d="m186.46,718.1c-.21.04-.43-.02-.59-.17-.28-.26-.29-.69-.03-.97.1-.1,9.92-10.43,19.85-3.54.31.22.39.64.17.95-.22.31-.64.39-.95.17-8.96-6.22-17.98,3.26-18.07,3.35-.11.11-.24.18-.38.21Z"/>
        </g>
        <g>
          <path class="cls-34" d="m290.65,717.78c-10.31,1.87-13.07-6.48-13.09-6.57-.11-.36.09-.74.45-.86.34-.12.74.08.86.45.11.34,2.77,8.21,13.4,5.2.37-.08.75.11.85.47.1.37-.11.74-.47.85-.69.2-1.35.35-1.99.46Z"/>
          <path class="cls-41" d="m220,671.47s-7.8-4.75,5.04-14.79c12.84-10.04,18.13-9.31,21.11-5.99,2.72,3.02.39,8.71-6.93,14.21-8.79,6.59-14.95,9.34-19.22,6.58Z"/>
          <path class="cls-41" d="m250.09,691.1c.83,4.59-1.54,8.87-5.31,9.55-3.77.68-7.5-2.48-8.33-7.07-.83-4.59,1.54-8.87,5.31-9.55,3.77-.68,7.5,2.48,8.33,7.07Z"/>
          <path class="cls-41" d="m322.89,677.87c.83,4.59-1.54,8.87-5.31,9.55-3.77.68-7.5-2.48-8.33-7.07-.83-4.59,1.54-8.87,5.31-9.55,3.77-.68,7.5,2.48,8.33,7.07Z"/>
          <path class="cls-41" d="m329.28,650.3s5.63-7.19-9.92-12.07c-15.55-4.88-20.24-2.33-21.87,1.82-1.48,3.78,2.7,8.3,11.49,10.86,10.55,3.08,17.28,3.48,20.3-.61Z"/>
          <path class="cls-34" d="m289.82,701.09c-.26.05-.53-.06-.69-.28-.22-.31-.14-.74.17-.95.05-.04,5-3.52,6.51-8.79,1.19-4.14-.43-9.73-3.4-11.74-1.78-1.2-3.86-.96-6.01.72-.07.05-.18.14-.32.26-7.43,6.33-11.57,4.85-13.74,2.48-3.98-4.34-4.96-32.48-5.44-36.93-.04-.38.24-.71.61-.76.38-.04.71.23.76.61,1.3,11.97,1.98,32.76,5.09,36.15,2.56,2.79,6.54,1.92,11.84-2.6.16-.14.29-.24.36-.3,2.63-2.04,5.33-2.32,7.62-.77,3.46,2.34,5.31,8.53,3.95,13.25-1.65,5.75-6.83,9.38-7.05,9.53-.08.06-.17.09-.27.11Z"/>
        </g>
        <path class="cls-41" d="m192.81,651.52s15.35-24.45,52.9-20.61c1.68.17,3.38.46,5.05.77,37.26,7.01,63.13,1.63,85.73-12.65,17.36-10.97,32.02-35.2,19.41-52.34-12.61-17.14-32.07,1.31-32.07,1.31,0,0,9.13-17.45-8.54-26.02-13.56-6.58-26.05,13.32-26.05,13.32,0,0,5.88-19.6-11.85-21.7-18.42-2.18-22.7,17.13-22.7,17.13,0,0,1.03-14.48-18.04-18.88-10.93-2.52-17.13,5.81-19.8,9.71-5.75,8.43-13.65,15.21-22.46,20.36-21.25,12.43-50,37.53-26.85,74.71"/>
        <path class="cls-27" d="m176.13,646.75c11.82-15.01,31.83-21.49,50.93-21.96,19.1-.47,37.88,4.21,56.68,7.6,9.42,1.7,19.18,3.07,28.47.77,14.98-3.71,25.97-16.14,35.94-27.92"/>
        <path class="cls-27" d="m168.91,638.94c-9.65-8.4-14.84-21.64-13.48-34.36,1.37-12.72,9.26-24.56,20.48-30.71,6.75-3.7,14.52-5.43,20.89-9.76,12.94-8.8,18.62-27.26,33.55-31.94,7.51-2.35,16.25-.24,21.85,5.3,5.6,5.53,7.83,14.24,5.57,21.78"/>
        <path class="cls-27" d="m289.12,558.53c2.32-5.39,5.65-10.48,10.36-13.97,4.71-3.49,10.94-5.22,16.6-3.68,6.62,1.79,11.53,7.78,13.45,14.36,1.92,6.58,1.23,13.66-.39,20.32"/>
      </g>
      <path class="cls-5" d="m379.76,959.6s-6.78-66.57-12.02-105.08"/>
      <line class="cls-5" x1="172.62" y1="871.69" x2="163.54" y2="974.59"/>
      <line class="cls-5" x1="415.34" y1="847.35" x2="397.21" y2="900.61"/>
      <path class="cls-10" d="m424.19,822.38c28.87,17.81,53.5,12.96,53.5,12.96l1.76-9.12s-26.28,4.75-52.31-13.75l-2.95,9.92Z"/>
      <path class="cls-10" d="m479.45,826.21s-17.22-15.96-52.31-13.75c0,0,18.54,16.04,52.31,13.75Z"/>
      <path class="cls-10" d="m468.61,826.61s21.87-27.17,17.66-45.66c-4.22-18.49-25.19-26.62-25.19-26.62,0,0,1.84-36.02-7.47-37.37-9.31-1.35-6.82,40.31-6.82,40.31,0,0-9.9-.32-10.29,23.09-.39,23.41-1.47,36.66-1.47,36.66,0,0,12.51,9.69,33.58,9.58Z"/>
      <path class="cls-11" d="m453.09,782.21s9.65,11.2,5.43,26.64"/>
      <path class="cls-11" d="m443.84,757.48s12.43,18.26,9.73,27.01c-2.7,8.75-13.45-4.03-16.15-14.71,0,0-.1-11.19,6.41-12.29Z"/>
      <path class="cls-10" d="m486.36,780.07c-2.35,5.55-6.55,10.21-11.38,13.8-1.57,1.17-3.89,2.18-5.33.85-1.43-1.32-.63-3.68.27-5.41,3.58-6.92,7.16-13.84,10.73-20.76-3.32,7.06-10.3,16.78-16.24,21.84-1.58,1.35-4.04-.07-3.67-2.12,1.43-7.89,6.73-18.87,11.36-25.42-3.05,5.13-6.09,10.25-9.14,15.38-1.08,1.82-2.59,3.89-4.71,3.79-1.94-.09-3.33-2.12-3.41-4.07-.08-1.94.79-3.78,1.64-5.53,2.57-5.29,5.14-10.58,7.71-15.86,0,0,5.12-2.13,8.82,3.88,0,0,7.04,1.83,8.68,6.66,0,0,7.61,5.95,4.65,12.97Z"/>
    </g>
  </g>
  <g>
    <g>
      <circle class="cls-38" cx="95.09" cy="467.18" r="49.57"/>
      <circle class="cls-21" cx="95.09" cy="467.18" r="49.57"/>
    </g>
    <circle class="cls-33" cx="904.61" cy="473.56" r="17.18"/>
    <g>
      <circle class="cls-38" cx="592.07" cy="919.74" r="40.69"/>
      <g>
        <g>
          <line class="cls-38" x1="572.71" y1="899.3" x2="611.42" y2="940.18"/>
          <path class="cls-38" d="m611.64,942.49c-.68.06-1.39-.17-1.89-.71l-38.71-40.88c-.88-.93-.84-2.39.09-3.27.93-.88,2.39-.84,3.27.09l38.71,40.88c.88.93.84,2.39-.09,3.27-.39.37-.88.58-1.37.62Z"/>
        </g>
        <g>
          <line class="cls-38" x1="612.51" y1="900.39" x2="571.63" y2="939.1"/>
          <path class="cls-38" d="m569.32,939.31c-.06-.68.17-1.39.71-1.89l40.88-38.71c.93-.88,2.39-.84,3.27.09.88.93.84,2.39-.09,3.27l-40.88,38.71c-.93.88-2.39.84-3.27-.09-.37-.39-.58-.88-.62-1.37Z"/>
        </g>
      </g>
    </g>
    <g>
      <circle class="cls-38" cx="454.59" cy="80.44" r="28.77"/>
      <path class="cls-38" d="m450.78,95.64c-.14.02-.27.03-.41.03-.87.02-1.7-.33-2.29-.97l-10.48-11.23c-1.16-1.23-1.09-3.18.15-4.33,1.22-1.15,3.18-1.09,4.33.15l8.17,8.75,16.79-20.81c1.11-1.26,3.06-1.4,4.33-.29,1.28,1.11,1.41,3.05.29,4.33l-19.02,23.37c-.48.55-1.14.91-1.85,1.01Z"/>
    </g>
  </g>
  <g>
    <line class="cls-35" x1="83.39" y1="516.7" x2="108.22" y2="589.89"/>
    <line class="cls-36" x1="110.1" y1="419.93" x2="140.71" y2="357.05"/>
    <line class="cls-35" x1="514.47" y1="786.93" x2="602.16" y2="692.86"/>
    <line class="cls-36" x1="295.08" y1="503.65" x2="279.19" y2="396.43"/>
    <line class="cls-35" x1="405.33" y1="337.13" x2="647.67" y2="570.88"/>
    <line class="cls-36" x1="410.99" y1="538.62" x2="579.02" y2="428.08"/>
    <line class="cls-36" x1="570.73" y1="919.74" x2="445.74" y2="905.53"/>
    <line class="cls-35" x1="632.12" y1="912.64" x2="688.81" y2="850.23"/>
    <line class="cls-36" x1="788.35" y1="506.66" x2="798.53" y2="460.65"/>
    <line class="cls-35" x1="880.85" y1="531.22" x2="899.45" y2="490.74"/>
    <line class="cls-36" x1="904.61" y1="456.38" x2="878.81" y2="405.84"/>
    <line class="cls-35" x1="549.64" y1="109.21" x2="483.36" y2="80.44"/>
    <line class="cls-36" x1="428.66" y1="92.93" x2="375.09" y2="142.5"/>
  </g>
  <path class="cls-38" d="m522.84,584.03h-116.95c-8.69,0-15.74,7.05-15.74,15.74v74.54c0,8.69,7.05,15.74,15.74,15.74h18.18l-1.04,10.44c-.28,2.85,3.08,4.57,5.22,2.66l14.72-13.1h79.87c8.69,0,15.74-7.05,15.74-15.74v-74.54c0-8.69-7.05-15.74-15.74-15.74Z"/>
  <path class="cls-19" d="m523.2,583.4h-116.95c-8.69,0-15.74,7.05-15.74,15.74v74.54c0,8.69,7.05,15.74,15.74,15.74h18.18l-1.04,10.44c-.28,2.85,3.08,4.57,5.22,2.66l14.72-13.1h79.87c8.69,0,15.74-7.05,15.74-15.74v-74.54c0-8.69-7.05-15.74-15.74-15.74Z"/>
  <g>
    <circle class="cls-28" cx="419.69" cy="638.27" r="8.7"/>
    <path class="cls-28" d="m473.42,638.27c0,4.8-3.89,8.7-8.7,8.7s-8.7-3.89-8.7-8.7,3.89-8.7,8.7-8.7,8.7,3.89,8.7,8.7Z"/>
    <circle class="cls-28" cx="509.76" cy="638.27" r="8.7"/>
  </g>
  <path class="cls-38" d="m928.85,98.22h-87.86c-6.53,0-11.83,5.29-11.83,11.83v56c0,6.53,5.29,11.83,11.83,11.83h13.66l-.78,7.84c-.21,2.14,2.32,3.43,3.92,2l11.06-9.84h60c6.53,0,11.83-5.29,11.83-11.83v-56c0-6.53-5.29-11.83-11.83-11.83Z"/>
  <path class="cls-22" d="m928.86,98.23h-87.86c-6.53,0-11.83,5.29-11.83,11.83v56c0,6.53,5.29,11.83,11.83,11.83h13.66l-.78,7.84c-.21,2.14,2.32,3.43,3.92,2l11.06-9.84h60c6.53,0,11.83-5.29,11.83-11.83v-56c0-6.53-5.29-11.83-11.83-11.83Z"/>
  <g>
    <path class="cls-28" d="m857.64,139.46c0,3.61-2.93,6.53-6.53,6.53s-6.53-2.93-6.53-6.53,2.93-6.53,6.53-6.53,6.53,2.93,6.53,6.53Z"/>
    <path class="cls-28" d="m891.47,139.46c0,3.61-2.93,6.53-6.53,6.53s-6.53-2.93-6.53-6.53,2.93-6.53,6.53-6.53,6.53,2.93,6.53,6.53Z"/>
    <path class="cls-28" d="m925.3,139.46c0,3.61-2.93,6.53-6.53,6.53s-6.53-2.93-6.53-6.53,2.93-6.53,6.53-6.53,6.53,2.93,6.53,6.53Z"/>
  </g>
</svg>