<?xml version="1.0" encoding="UTF-8"?>
<svg xmlns="http://www.w3.org/2000/svg" xmlns:xlink="http://www.w3.org/1999/xlink" viewBox="0 0 1000 1000">
  <defs>
    <style>
      .cls-1 {
        fill: url(#_Áåçûìÿííûé_ãðàäèåíò_75);
      }

      .cls-1, .cls-2, .cls-3, .cls-4, .cls-5, .cls-6, .cls-7, .cls-8, .cls-9, .cls-10, .cls-11, .cls-12, .cls-13, .cls-14, .cls-15, .cls-16, .cls-17, .cls-18, .cls-19, .cls-20, .cls-21, .cls-22, .cls-23, .cls-24, .cls-25, .cls-26, .cls-27, .cls-28, .cls-29, .cls-30, .cls-31, .cls-32, .cls-33, .cls-34, .cls-35, .cls-36, .cls-37, .cls-38 {
        stroke-width: 0px;
      }

      .cls-1, .cls-2, .cls-3, .cls-5, .cls-6, .cls-7, .cls-8, .cls-9, .cls-10, .cls-11, .cls-12, .cls-13, .cls-15, .cls-16, .cls-17, .cls-18, .cls-19, .cls-20, .cls-21, .cls-22, .cls-23, .cls-24, .cls-25, .cls-26, .cls-28, .cls-29, .cls-31, .cls-32, .cls-33, .cls-34, .cls-36, .cls-37 {
        fill-rule: evenodd;
      }

      .cls-2 {
        fill: url(#linear-gradient);
      }

      .cls-2, .cls-9, .cls-18, .cls-39, .cls-26, .cls-28, .cls-30, .cls-31 {
        opacity: .5;
      }

      .cls-2, .cls-18, .cls-39, .cls-28, .cls-30, .cls-31 {
        mix-blend-mode: multiply;
      }

      .cls-3 {
        fill: #e3d9d2;
      }

      .cls-4 {
        fill: #593866;
      }

      .cls-5 {
        fill: url(#_Áåçûìÿííûé_ãðàäèåíò_83-2);
      }

      .cls-6 {
        fill: #9f3950;
        opacity: .43;
      }

      .cls-7 {
        fill: #d2715e;
      }

      .cls-8 {
        fill: url(#_Áåçûìÿííûé_ãðàäèåíò_130);
      }

      .cls-40 {
        isolation: isolate;
      }

      .cls-9 {
        fill: #ffffb8;
      }

      .cls-9, .cls-11, .cls-13 {
        mix-blend-mode: soft-light;
      }

      .cls-10 {
        fill: url(#_Áåçûìÿííûé_ãðàäèåíò_2);
      }

      .cls-11 {
        fill: #ffdd98;
        opacity: .58;
      }

      .cls-12 {
        fill: url(#_Áåçûìÿííûé_ãðàäèåíò_45);
      }

      .cls-13, .cls-22 {
        fill: #fff;
      }

      .cls-14, .cls-30 {
        fill: #c1748d;
      }

      .cls-15 {
        fill: #d2c8e9;
      }

      .cls-16 {
        fill: #a45c86;
      }

      .cls-17 {
        fill: url(#_Áåçûìÿííûé_ãðàäèåíò_87-2);
      }

      .cls-18 {
        fill: url(#_Áåçûìÿííûé_ãðàäèåíò_99);
      }

      .cls-19 {
        fill: url(#_Áåçûìÿííûé_ãðàäèåíò_168);
      }

      .cls-20 {
        fill: #514c59;
      }

      .cls-21 {
        fill: url(#_Áåçûìÿííûé_ãðàäèåíò_87);
      }

      .cls-23 {
        fill: url(#_Áåçûìÿííûé_ãðàäèåíò_2-2);
      }

      .cls-24 {
        fill: #a23b58;
      }

      .cls-25 {
        fill: url(#_Áåçûìÿííûé_ãðàäèåíò_130-2);
      }

      .cls-26 {
        fill: #ffffce;
      }

      .cls-27 {
        fill: #791b40;
        opacity: .65;
      }

      .cls-28 {
        fill: #ae5188;
      }

      .cls-29 {
        fill: #eaeaef;
      }

      .cls-31 {
        fill: #8d81b1;
      }

      .cls-32 {
        fill: #df7668;
      }

      .cls-33 {
        fill: url(#_Áåçûìÿííûé_ãðàäèåíò_56);
      }

      .cls-34 {
        fill: url(#_Áåçûìÿííûé_ãðàäèåíò_105);
      }

      .cls-35 {
        fill: #5a4153;
      }

      .cls-36 {
        fill: url(#_Áåçûìÿííûé_ãðàäèåíò_105-2);
      }

      .cls-37 {
        fill: url(#_Áåçûìÿííûé_ãðàäèåíò_83);
      }

      .cls-38 {
        fill: #8b70f9;
      }
    </style>
    <radialGradient id="_Áåçûìÿííûé_ãðàäèåíò_83" data-name="Áåçûìÿííûé ãðàäèåíò 83" cx="408.28" cy="584.76" fx="408.28" fy="584.76" r="223.22" gradientUnits="userSpaceOnUse">
      <stop offset=".02" stop-color="#ffa874"/>
      <stop offset="1" stop-color="#f49372"/>
    </radialGradient>
    <radialGradient id="_Áåçûìÿííûé_ãðàäèåíò_87" data-name="Áåçûìÿííûé ãðàäèåíò 87" cx="774.91" cy="520.09" fx="774.91" fy="520.09" r="202.31" gradientUnits="userSpaceOnUse">
      <stop offset=".02" stop-color="#bd4d4d"/>
      <stop offset="1" stop-color="#9f3e54"/>
    </radialGradient>
    <radialGradient id="_Áåçûìÿííûé_ãðàäèåíò_56" data-name="Áåçûìÿííûé ãðàäèåíò 56" cx="502.2" cy="502.8" fx="502.2" fy="502.8" r="211.85" gradientUnits="userSpaceOnUse">
      <stop offset="0" stop-color="#ffcf84"/>
      <stop offset=".98" stop-color="#ffb88b"/>
    </radialGradient>
    <radialGradient id="_Áåçûìÿííûé_ãðàäèåíò_87-2" data-name="Áåçûìÿííûé ãðàäèåíò 87" cx="513.49" cy="508.05" fx="513.49" fy="508.05" r="190.33" xlink:href="#_Áåçûìÿííûé_ãðàäèåíò_87"/>
    <radialGradient id="_Áåçûìÿííûé_ãðàäèåíò_83-2" data-name="Áåçûìÿííûé ãðàäèåíò 83" cx="541.08" cy="136.39" fx="541.08" fy="136.39" r="273.9" xlink:href="#_Áåçûìÿííûé_ãðàäèåíò_83"/>
    <radialGradient id="_Áåçûìÿííûé_ãðàäèåíò_45" data-name="Áåçûìÿííûé ãðàäèåíò 45" cx="804.21" cy="136.39" fx="804.21" fy="136.39" r="204.2" gradientUnits="userSpaceOnUse">
      <stop offset=".02" stop-color="#ce634f"/>
      <stop offset="1" stop-color="#9f3e54"/>
    </radialGradient>
    <linearGradient id="_Áåçûìÿííûé_ãðàäèåíò_99" data-name="Áåçûìÿííûé ãðàäèåíò 99" x1="164.18" y1="829.37" x2="622.37" y2="829.37" gradientUnits="userSpaceOnUse">
      <stop offset="0" stop-color="#d3b8d6"/>
      <stop offset="1" stop-color="#fff"/>
    </linearGradient>
    <linearGradient id="_Áåçûìÿííûé_ãðàäèåíò_168" data-name="Áåçûìÿííûé ãðàäèåíò 168" x1="383.47" y1="739.73" x2="383.47" y2="644.03" gradientUnits="userSpaceOnUse">
      <stop offset=".03" stop-color="#ecc5c4"/>
      <stop offset="1" stop-color="#fff2e3"/>
    </linearGradient>
    <linearGradient id="linear-gradient" x1="500" y1="871.54" x2="500" y2="114.54" gradientUnits="userSpaceOnUse">
      <stop offset="0" stop-color="#6d3e80"/>
      <stop offset="1" stop-color="#8e31d6"/>
    </linearGradient>
    <linearGradient id="_Áåçûìÿííûé_ãðàäèåíò_2" data-name="Áåçûìÿííûé ãðàäèåíò 2" x1="544.29" y1="390.98" x2="544.29" y2="287.49" gradientUnits="userSpaceOnUse">
      <stop offset="0" stop-color="#fb9292"/>
      <stop offset="1" stop-color="#ba6586"/>
    </linearGradient>
    <linearGradient id="_Áåçûìÿííûé_ãðàäèåíò_2-2" data-name="Áåçûìÿííûé ãðàäèåíò 2" x1="359.13" y1="365.06" x2="359.13" y2="264.46" xlink:href="#_Áåçûìÿííûé_ãðàäèåíò_2"/>
    <linearGradient id="_Áåçûìÿííûé_ãðàäèåíò_105" data-name="Áåçûìÿííûé ãðàäèåíò 105" x1="490.67" y1="512.7" x2="490.67" y2="405.9" gradientUnits="userSpaceOnUse">
      <stop offset=".02" stop-color="#ffde31"/>
      <stop offset=".97" stop-color="#ff784f"/>
    </linearGradient>
    <linearGradient id="_Áåçûìÿííûé_ãðàäèåíò_105-2" data-name="Áåçûìÿííûé ãðàäèåíò 105" x1="343.23" y1="506.35" x2="343.23" y2="404.36" xlink:href="#_Áåçûìÿííûé_ãðàäèåíò_105"/>
    <linearGradient id="_Áåçûìÿííûé_ãðàäèåíò_130" data-name="Áåçûìÿííûé ãðàäèåíò 130" x1="494.53" y1="506.71" x2="494.53" y2="436.96" gradientUnits="userSpaceOnUse">
      <stop offset=".02" stop-color="#51657f"/>
      <stop offset=".53" stop-color="#4b3143"/>
      <stop offset=".98" stop-color="#412245"/>
    </linearGradient>
    <linearGradient id="_Áåçûìÿííûé_ãðàäèåíò_130-2" data-name="Áåçûìÿííûé ãðàäèåíò 130" x1="354" y1="500.3" x2="354" y2="430.52" xlink:href="#_Áåçûìÿííûé_ãðàäèåíò_130"/>
    <linearGradient id="_Áåçûìÿííûé_ãðàäèåíò_75" data-name="Áåçûìÿííûé ãðàäèåíò 75" x1="394.89" y1="529.38" x2="394.89" y2="510.3" gradientUnits="userSpaceOnUse">
      <stop offset="0" stop-color="#ba6586"/>
      <stop offset=".99" stop-color="#fb9292"/>
    </linearGradient>
  </defs>
  <g class="cls-40">
    <g id="Livello_1" data-name="Livello 1">
      <g>
        <ellipse class="cls-38" cx="500" cy="821.37" rx="418.75" ry="76.63"/>
        <g>
          <path class="cls-37" d="m118.79,567.48h575.64l-27.07,304.06-513.8-18.92s-25.75-140.78-34.78-285.14Z"/>
          <path class="cls-21" d="m881.21,498.9l-186.77,68.57-27.07,304.06,166.62-79.39s36.39-205.73,47.22-293.24Z"/>
          <polygon class="cls-33" points="118.79 567.48 418.35 498.9 881.21 498.9 694.44 567.48 118.79 567.48"/>
          <polygon class="cls-17" points="168.42 560.71 694.44 562.51 854.59 504.77 421.95 504.77 168.42 560.71"/>
          <polygon class="cls-11" points="421.95 504.77 421.28 561.58 694.44 562.51 854.59 504.77 421.95 504.77"/>
          <path class="cls-5" d="m881.21,498.9s-57.44-244.81-133.23-384.36c0,0-298.35,25.26-536.55,87.82l-14.44,69.77s80.9,101.05,150.38,212.93c0,0,43.91,13.83,70.98,13.83h462.86Z"/>
          <path class="cls-6" d="m427.34,498.9h453.87l-144.06-311.58-254.29,27.82s-21.26-30.68-55.52-20.3c-34.26,10.38-44.18,41.95-44.18,41.95l-111.81,30.76,155.99,231.35Z"/>
          <path class="cls-12" d="m747.97,114.54s-1.8,30.68-21.65,72.78c0,0,61.05,149.17,94.44,269.18,0,0,20.75,37.9,60.45,42.41,0,0-60.75-255.34-133.23-384.36Z"/>
          <path class="cls-24" d="m271.35,267.56l155.99,231.35s-48.81,11.14-76.36-17.89l-127.52-196.24,47.89-17.21Z"/>
          <path class="cls-7" d="m418.17,500.32s-43.28,5.51-67.19-19.31c0,0-62.56-103.01-127.52-196.24,0,0,45.11-22.26,165.11-42.11,0,0,22.87-47.01,52.33-47.82,32.78-.9,38.2,20.75,38.2,20.75,0,0,172.63-21.05,237.6-18.04,0,0,67.97,151.58,91.43,258.65,0,0,17.44,30.68,52.93,42.71h20.15s-26.17,1.2-60.45-42.41c0,0-54.14-190.38-94.44-269.18,0,0-90.83,1.8-245.42,20.45,0,0-23.96-19.55-51.96-13.83-29.94,6.11-48.5,38.5-48.5,38.5l-183.46,39.7s70.08,98.35,150.38,212.93c0,0,29.02,25.56,70.8,15.25Z"/>
          <path class="cls-24" d="m380.45,232.44l8.12,10.23s19.62-44.02,54.13-47.84c0,0-31.58-10.51-62.26,37.61Z"/>
          <g>
            <polygon class="cls-26" points="539.1 856.95 539.1 789.28 645.72 789.28 641.2 858.76 539.1 856.95"/>
            <g class="cls-39">
              <path class="cls-14" d="m633.73,853.86l-86.44-1.53v-58.14h90.32l-3.87,59.67Zm-84.01-3.92l81.74,1.44,3.56-54.77h-85.3v53.32Z"/>
            </g>
            <rect class="cls-30" x="561.8" y="803.72" width="55.94" height="9.02"/>
            <rect class="cls-30" x="561.8" y="820.86" width="55.94" height="4.51"/>
          </g>
          <g>
            <g>
              <polygon class="cls-35" points="510.95 842.24 521.01 842.24 521.01 814.57 513.39 814.57 510.95 842.24"/>
              <polygon class="cls-35" points="506.68 817.62 528.02 817.62 517.35 796.28 506.68 817.62"/>
            </g>
            <g>
              <polygon class="cls-35" points="480.15 842.24 490.22 842.24 490.22 814.57 482.59 814.57 480.15 842.24"/>
              <polygon class="cls-35" points="475.89 817.62 497.23 817.62 486.56 796.28 475.89 817.62"/>
            </g>
          </g>
          <path class="cls-27" d="m223.46,284.77l127.52,196.24s17.54,25.41,76.36,17.89h6.79l-76.69-184.36,368.27-96.28-9.01-20.71s-101.8.45-237.6,18.04c0,0-13.29-29.73-44.22-19.85-30.93,9.88-46.31,46.92-46.31,46.92,0,0-113.98,16.54-165.11,42.11Z"/>
          <path class="cls-9" d="m747.97,114.54s2.13,35.79-21.65,72.78c0,0-178.49,9.32-245.42,20.45,0,0-23.96-22.86-53.56-12.93-29.6,9.92-46.89,37.59-46.89,37.59l-183.46,39.7,14.44-69.77s295.5-74.29,536.55-87.82Z"/>
          <g class="cls-39">
            <path class="cls-3" d="m149.32,689.24c1.27,6.81,4.74,10.49,12.73,8.88,5.14-1.03,8.15-5.47,7.23-10.89-.93-5.49-6.55-10.03-12.15-9.31-5.79.74-8.74,8.2-7.81,11.32Z"/>
            <path class="cls-3" d="m342.48,766.32c.69-7.64,8.61-11.81,15.34-12.53,5.7-.61,10.84.97,15.72,4.06,4.79,3.03,8.59,8.4,6.16,14.15-.8,1.9-3.12,6.05-4.75,7.37-2.49,2.01-7.48.67-10.31.19-5.16-.87-7.03-2.61-10.61-5.93-3.22-2.99-11.79-.6-11.55-7.31Z"/>
            <path class="cls-3" d="m154.4,659.82c-4.46,1.83-10.82,8.7-4.33,11.57,3.53,1.56,14.39-.48,17.34-2.73,12.04-9.23-7.02-17.16-14.87-7.44l1.86-1.39Z"/>
            <path class="cls-3" d="m160.19,718.81c4.38-7.7,12.38,1.09,7.16,5.48-3.5,2.94-7.56-.05-8.06-3.8l.89-1.68Z"/>
            <path class="cls-3" d="m172.07,689.55c2.92-5.14,8.26.73,4.78,3.66-2.33,1.96-5.04-.04-5.37-2.53l.6-1.12Z"/>
            <path class="cls-3" d="m638.34,614.69c-6.96,9.37,5.79,20.34,10.83,9.02,2.7-6.05-2.52-13.44-8.43-9.02h-2.41Z"/>
            <path class="cls-3" d="m659.39,641.76c-.92-1.81-1.79-1.33-2.78-.18-1.65,1.92-.55,2.34.61,3.8,2.59,3.26,4.87,3.16,8.42.89,2.85-1.82,7.64-6.86,2.48-9.37-2.19-1.07-6.81.5-8.13,2.15l-.6,2.71Z"/>
            <path class="cls-3" d="m647.96,645.37c-.52-4.62,6.35,1.34,3.34,3.85-2.55,2.12-4.15-2.31-3.34-4.15v.3Z"/>
            <path class="cls-3" d="m661.8,629.43c1.92,3.05,5.84-1.24,4.45-3.25-1.66-2.4-4.1,1.5-4.75,2.65l.3.6Z"/>
            <path class="cls-3" d="m588.42,684.17c1.15-3.8,5.84-.28,6.41,2.16.8,3.42-2.16,7.87-5.79,8.22-5.57.53-7.05-8.13-2.12-10.08l1.5-.3Z"/>
            <path class="cls-3" d="m640.45,691.09c-3.3,4.82,7.92,5.84,7.82.38-.08-4.33-6.55-4.33-7.82-.68v.3Z"/>
            <path class="cls-3" d="m593.83,596.65c-2.26-2.94.76-7.4,4.27-6.88,4.55.66,4.65,6.96,3.11,10.07-3.37,6.86-12.75,2.18-8.89-4.39l1.5,1.2Z"/>
            <path class="cls-3" d="m660.6,581.91c-4,9.49,11.5,6.14,12.35-1.49,1.02-9.21-11.2-6.79-12.35,1.49Z"/>
            <path class="cls-3" d="m378.49,747.93c-6.35,8.67,10.27,12.88,11.62,1.98-3.32-4.25-9.44-5.23-13.42-1.08l1.8-.9Z"/>
            <path class="cls-3" d="m291.87,852.59c13.91-17.82,40.89-24.82,60.04-11.71,5.03,3.44,12.19,9.64,6.21,15.24-5.2,4.87-30.16.08-37.15.08-10.06,0-20.44.38-29.1-3.61Z"/>
            <path class="cls-3" d="m243.15,843.57c1.14,7.99,15.2,5.2,13.13-1.39-1.37-4.37-9.05-5.49-10.43-1.32l-2.71,2.71Z"/>
            <path class="cls-3" d="m422.7,846.28c2.36-12.75,16.19,6.79,2.86,5.26-.24-1.01-.63-1.66-1.06-2.55l-1.8-2.71Z"/>
            <path class="cls-3" d="m419.99,590.03c-1.82,8.58,9.09,6.85,9.06-.05-.03-5.71-7.48-7.71-9.06-1.76v1.8Z"/>
            <path class="cls-3" d="m649.17,726.27c.88-1.39,2.07-2.3,3.56-2.73,5.62,7.44-6.9,12.45-3.56,3.63v-.9Z"/>
            <path class="cls-3" d="m253.37,211.68c-13.72,35.05,44.04,10.64,52.43-5.56,8.69-16.79-13.4-19.56-25.81-17.32-14.72,2.66-26.13,13.23-26.62,22.88Z"/>
            <path class="cls-3" d="m307.51,220.1c1.39-7.79,16-14.54,14.19-2.7-1.01,6.63-10.39,10.98-12.99,3.9l-1.2-1.2Z"/>
            <path class="cls-3" d="m599.84,165.97c-13.92,19.44,44.39,19.67,47.08.3,2.77-19.91-41.86-13.12-48.28-1.5l1.2,1.2Z"/>
            <path class="cls-3" d="m640.75,143.11c1.21-12.06,17.88-6.77,14.34.51-2.9,5.96-11.33,1.66-14.34-1.71v1.2Z"/>
            <path class="cls-3" d="m685.26,157.55c5.51-.12,10.68-1.35,15.52-3.7-1.33-10.83-14.82-8.36-18.04.09.48,1.72,1.6,1.41,2.53,2.41v1.2Z"/>
            <path class="cls-3" d="m532.47,180.4c-.1-4.55,1.18-6.83,5.78-7.04,5.65,4.65,4.22,13.71-3.37,11.85l-2.41-4.81Z"/>
            <path class="cls-3" d="m267.81,751.84c-19.78,16.66,22.82,11.69,3.61,2.41l-3.61-2.41Z"/>
            <path class="cls-3" d="m183.6,796.65c-4.87,4.98-3.02,15.32,5.68,11.59,6.63-2.84,5.14-14.46-2.97-10.69l-2.71-.9Z"/>
            <path class="cls-3" d="m223.3,823.72c1.59-5.49,8.52-5.58,8.19-.03-.28,4.67-4.91,4.16-6.38.93l-1.8-.9Z"/>
            <path class="cls-3" d="m493.08,585.52c2.06-1.2,3.69-2.78,4.89-4.76-3.27-2.82-3.43-.63-4.89,2.05v2.71Z"/>
          </g>
          <g>
            <path class="cls-35" d="m421.94,800.62h27.81s.21,21.06-13.91,21.66c-14.11.6-13.91-21.66-13.91-21.66Z"/>
            <polygon class="cls-35" points="433.26 819.42 435.84 835.59 426.5 841.11 445.64 841.11 438.12 835.59 438.12 822.27 433.26 819.42"/>
          </g>
          <path class="cls-18" d="m164.18,851.62s83.34-55.12,178.3-62.34c94.96-7.22,279.9,80.6,279.9,80.6l-458.19-18.26Z"/>
          <polygon class="cls-19" points="308.39 644.03 308.39 731.77 453.92 739.73 458.55 646.72 308.39 644.03"/>
          <polygon class="cls-35" points="322.59 658.53 381.96 661.17 381.96 665.58 322.59 662.05 322.59 658.53"/>
          <polygon class="cls-30" points="321.08 669.39 321.08 705.34 383.39 707.99 383.47 671.93 321.08 669.39"/>
          <path class="cls-32" d="m694.44,567.48s-30.62,205.68-27.07,304.06l27.07-304.06Z"/>
          <path class="cls-2" d="m833.53,328.5c-23.3-73.89-53.26-156.46-85.56-213.96-117.03,6.57-246.82,27.46-349.47,47.22-62.33,11.27-126.63,24.73-187.07,40.6l-14.44,69.77s70.08,98.35,150.38,212.93c0,0,21.74,19.09,54.65,17.57l-283.22,64.83c9.02,144.36,34.78,285.14,34.78,285.14l513.8,18.92,166.62-79.39s36.39-205.73,47.22-293.24c0,0-18.22-77.65-47.67-170.41Z"/>
          <g>
            <path class="cls-29" d="m604.1,506.42c0,1.24-.17,2.59-.45,4.05-3.32,16.11-25.17,44.32-66.73,59.97-45.39,17.06-104.91,22.98-116.12,23.99-11.21,1.07-44.77-5.41-75.97-19.71-24.61-11.32-39.64-23.54-47.81-36.1-5.8-8.84-8.22-17.85-8.22-26.86,0-19.71,8.22-34.18,11.94-46.46,3.77-12.28,11.54-70.39,31.82-100.24,13.91-20.55,42.18-38.91,71.52-48.43.17-.11.28-.17.39-.17,13.23-4.28,26.69-6.76,39.08-6.87,37.34-.28,97.08,34.63,118.43,81.6,18.98,41.73,42.12,100.29,42.12,115.22Z"/>
            <path class="cls-29" d="m501.82,328.39s4.23-11.96,20.67-24.5c20.98-16,52.64-24.18,60.82-22.05,8.18,2.13,20.81,85.71-14.79,124.06,0,0-61.41-35.93-66.7-77.51Z"/>
            <path class="cls-29" d="m404.57,316.43s-44.79-52.71-64.53-54.71c-19.74-2-7.47,103.34-7.47,103.34,0,0,36.28-37.61,72-48.63Z"/>
            <path class="cls-10" d="m586.36,329.31c-4,47.7-39.25,61.66-39.25,61.66-30.41-14.36-45.28-62.56-45.28-62.56.17-.34.34-.68.51-.96,26.24-47.36,80.41-39.47,80.41-39.47,3.72,15.99,4.62,29.68,3.6,41.33Z"/>
            <path class="cls-31" d="m440.45,496.32c-7.22-11.98-3.66-86.44,39.91-105.33,37.15-16.1,71.79,55.42,63.95,94.11-7.84,38.69-84.54,43.25-103.85,11.22Z"/>
            <path class="cls-23" d="m389.9,322.34s-29.94-52.85-55.11-57.88c0,0-12.89,13.11-2.22,100.6,0,0,28.77-28.9,57.33-42.72Z"/>
            <path class="cls-34" d="m446.47,498.43c13.24,24.64,78.76,14.94,90.49-10.67,11.74-25.61-3.27-81.98-39.01-81.86-34.27.11-72.56,53.31-51.48,92.53Z"/>
            <path class="cls-36" d="m366.96,483.16c-1.69,8.45-4.39,14.87-7.83,17.4-12.95,9.63-36.72,10.14-40.94-21.34-4.28-31.48,15.49-84.58,30.41-73.32,7.21,5.46,12.22,14.19,15.49,24.21,5.57,17.23,5.86,38.24,2.87,53.05Z"/>
            <path class="cls-15" d="m603.65,510.47c-3.32,16.11-25.17,44.32-66.73,59.97-45.39,17.06-104.91,22.98-116.12,23.99-11.21,1.07-44.77-5.41-75.97-19.71-24.61-11.32-39.64-23.54-47.81-36.1,0,0,18.02-16.67,42.29-23.09l-7.6,7.26c2.08-1.46,20.33-13.63,45.28-12.5,26.58,1.18,76.8,19.86,124.84,19.07,0,0-11.7.75-21.67-4.94,0,0,84.75,4.28,123.49-13.97Z"/>
            <path class="cls-8" d="m529.4,471.83c0,19.26-15.61,34.87-34.87,34.87s-34.87-15.61-34.87-34.87,15.61-34.87,34.87-34.87,34.87,15.61,34.87,34.87Z"/>
            <path class="cls-25" d="m366.96,489.26c-2.93,6.81-7.1,11.04-11.71,11.04-8.9,0-16.11-15.66-16.11-34.91s7.21-34.86,16.11-34.86c3.27,0,6.31,2.08,8.84,5.69,5.57,17.23,5.86,38.24,2.87,53.05Z"/>
            <g>
              <path class="cls-15" d="m320.51,442.74s10.21,21.21,46.98,1.99c0,0-4.91-43.71-26.22-40.42-16.01,2.47-20.77,38.44-20.77,38.44Z"/>
              <path class="cls-4" d="m319.41,441.18c7.02,6.15,15.23,8.32,23.57,7.91,4.19.02,8.4-.96,12.71-1.74,2.1-.62,4.29-1.05,6.47-1.62,2.17-.61,4.35-1.25,6.69-1.67-1.74,1.55-3.64,2.89-5.55,4.26-1.99,1.21-4.08,2.27-6.2,3.3-4.37,1.76-9.02,3.12-13.93,3.23-4.85.13-9.92-.71-14.26-3.14-4.31-2.35-7.98-6.03-9.5-10.52Z"/>
            </g>
            <path class="cls-16" d="m449.76,502.86s32.55,22.96,80.76-6.54c0,0-13.9,14.92-41.82,18.65-27.92,3.73-38.95-12.11-38.95-12.11Z"/>
            <path class="cls-16" d="m320.51,489.18s5.47,11.39,18.64,14.06c13.17,2.67,18.92-1.95,18.92-1.95,0,0-5.19,7.87-20.14,4.64-14.95-3.23-17.41-16.75-17.41-16.75Z"/>
            <path class="cls-20" d="m396.24,539.39c13.59,1.62,21.34,9.6,21.34,9.6,0,0-16.51-8.04-26.32-7.29-9.81.75-13.77,4.88-13.77,4.88,0,0,4.09-8.94,18.75-7.19Z"/>
            <path class="cls-29" d="m295.22,574.56s-7.1,3.89-13.52,0c0,0-37.11,13.74-53.33,1.75,0,0-13.18,3.21-17.06-1.75,0,0-1.46-18.81,11.32-27.14l.06-.06c12.78-8.39,48.37-10.53,58.34-7.32l.06.06c9.85,3.27,14.13,34.46,14.13,34.46Z"/>
            <path class="cls-29" d="m646.61,575.96s-5.35,4.96-12.11,2.87c0,0-22.36,15.71-50.12,2.36,0,0-11.21,2.48-19.03-6.42,0,0,9.12-22.02,17.85-27.31.06-.06.11-.11.11-.11,12.11-7.32,40.55-5.18,51.58,0,1.46.68,2.76,1.69,3.83,2.93,7.38,8,7.88,25.68,7.88,25.68Z"/>
            <path class="cls-28" d="m329.92,281.5s48.53,7.45,54.94,43.37l5.05-2.54s-22.65-48.94-55.11-57.88c0,0-5.04,4.62-4.88,17.05Z"/>
            <path class="cls-1" d="m373.98,512.59l3.02-2.3s21.12,4.2,32.76,0l6.03,2.3-5.17,6.44s-11.81,1.36-13.58,10.35h-8.41s-10.57-4.9-14.66-16.78Z"/>
            <path class="cls-22" d="m377,510.3s17.39-4.94,32.76,0c0,0-22.06,5.25-32.76,0Z"/>
            <path class="cls-15" d="m382.55,325.3s-16.02-8.8-43.4-8.66l27.54,8.66s-24.84-5.8-49.08,4.97l19.77,1.97s-13.2,25.46-13.67,49.14c0,0,21.05-33.16,58.84-56.09Z"/>
            <path class="cls-31" d="m427.56,559.86l-27.76,4.73c-11.99-4.73-22.3-18.02-22.3-18.02,0,0-11.15-7.6-10.81-17.17.34-9.63,7.32-16.78,7.32-16.78,0,0,.04-.84.1-2.31,1.25-.68,18.48-7.33,44.36-4.16,16.01,1.96-10.74-34.82-41.46-37.58-.43-14.19-11.67-53.29-13.77-64.2-6.03-31.65-13.96-47.45-13.96-47.45,10.3-21.34,47.53-37.34,54.23-40.04-29.11,9.52-57.16,27.76-70.95,48.2-20.27,29.85-28.04,87.96-31.82,100.24-3.72,12.28-11.94,26.75-11.94,46.46,0,9.01,2.42,18.02,8.22,26.86,8.17,12.56,23.2,24.78,47.81,36.1,31.2,14.3,64.76,20.78,75.97,19.71,11.21-1.01,70.73-6.93,116.12-23.99,41.56-15.65,63.41-43.87,66.73-59.97-50.74,76.13-176.09,49.39-176.09,49.39Zm-107.05-4.9c-9.35-.73-31.97-30.28-13.55-49.03,5.24-5.35,39.4,2.63,47.06,16.54,7.66,13.85-24.16,33.28-33.51,32.49Z"/>
            <path class="cls-13" d="m485.42,416.54l4.51,26.14,42.17,9.39v-16.06s-7.74-21.07-46.68-19.47Z"/>
            <path class="cls-22" d="m476.6,498.29c0,2.63-2.13,4.76-4.76,4.76s-4.76-2.13-4.76-4.76,2.13-4.76,4.76-4.76,4.76,2.13,4.76,4.76Z"/>
            <path class="cls-15" d="m547.08,390.99s16.13-20.26,17.02-61.67l-17.02,61.67Z"/>
            <path class="cls-15" d="m389.9,322.34s-18.22-26.1-35.91-24.23l35.91,24.23Z"/>
            <path class="cls-15" d="m515.74,519.84s56.47,5.71,76.61-21.89c0,0-38.19,20.53-76.61,21.89Z"/>
            <path class="cls-22" d="m393.38,512.7s13.88,1.97,22.41-.1l-5.34-2.36s-5.52,1.66-17.08,2.47Z"/>
            <path class="cls-31" d="m295.22,574.56s-7.1,3.89-13.52,0c0,0-37.11,13.74-53.33,1.75,0,0-13.18,3.21-17.06-1.75,0,0-1.46-18.81,11.32-27.14-.51.73-5.24,7.49-3.94,9.97,1.3,2.65,52.77,7.66,62.4,2.53,9.23-4.9.73-18.64,0-19.82,9.85,3.27,14.13,34.46,14.13,34.46Z"/>
            <path class="cls-31" d="m646.61,575.96s-5.35,4.96-12.11,2.87c0,0-22.36,15.71-50.12,2.36,0,0-11.21,2.48-19.03-6.42,0,0,9.12-22.02,17.85-27.31-.62,1.01-4.28,6.93.11,9.12,4.79,2.36,37.9,4,49.1,0,4.11-1.46,5.8-3.89,6.31-6.31,7.38,8,7.88,25.68,7.88,25.68Z"/>
            <path class="cls-28" d="m586.36,329.31s-.9-27.09-22.24-26.69c-21.34.39-37.84,19.71-37.84,19.71l-17.51,10.36-6.42-5.24c26.24-47.36,80.41-39.47,80.41-39.47,3.72,15.99,4.62,29.68,3.6,41.33Z"/>
            <path class="cls-15" d="m547.08,390.99s2.26-21.66-6.19-49.76v10.67s-7.73-31.3-31.92-45.17l5.33,14.23s-11.74-9.2-45.52-6.2c0,0,25.56,7.27,33.03,20.43,7.47,13.16,11.52,45.45,45.26,55.8Z"/>
            <path class="cls-31" d="m427.56,559.86s-19.23,14.33-24.74,14.33-25.32-27.62-25.32-27.62c0,0,12.52,14.47,22.3,18.02l27.76-4.73Z"/>
            <g>
              <path class="cls-15" d="m442.26,446.98s49.07,17.06,94.29-12.71c0,0-17.53-43.31-52.51-38.72-26.49,3.48-41.78,51.43-41.78,51.43Z"/>
              <path class="cls-4" d="m441.26,446.62c8.31,1.29,16.57,1.86,24.79,2.11,8.22.17,16.4-.19,24.48-1.26,8.1-.89,16.09-2.62,23.91-5.01,7.91-2.21,15.43-5.54,23.19-8.9-6.53,5.24-13.68,10.1-21.67,13.13-3.87,1.87-8.05,2.81-12.11,4.16-4.18.87-8.35,1.88-12.6,2.33-16.92,2.04-34.48.24-49.97-6.55Z"/>
            </g>
          </g>
        </g>
      </g>
    </g>
  </g>
</svg>